%TF.GenerationSoftware,KiCad,Pcbnew,9.0.3*%
%TF.CreationDate,2025-11-05T23:16:55+02:00*%
%TF.ProjectId,Graduation Project,47726164-7561-4746-996f-6e2050726f6a,rev?*%
%TF.SameCoordinates,Original*%
%TF.FileFunction,Legend,Top*%
%TF.FilePolarity,Positive*%
%FSLAX46Y46*%
G04 Gerber Fmt 4.6, Leading zero omitted, Abs format (unit mm)*
G04 Created by KiCad (PCBNEW 9.0.3) date 2025-11-05 23:16:55*
%MOMM*%
%LPD*%
G01*
G04 APERTURE LIST*
%ADD10C,0.100000*%
%ADD11C,0.125000*%
%ADD12C,0.150000*%
%ADD13C,0.120000*%
G04 APERTURE END LIST*
D10*
X132757650Y-119161709D02*
X132590984Y-118923614D01*
X132471936Y-119161709D02*
X132471936Y-118661709D01*
X132471936Y-118661709D02*
X132662412Y-118661709D01*
X132662412Y-118661709D02*
X132710031Y-118685519D01*
X132710031Y-118685519D02*
X132733841Y-118709328D01*
X132733841Y-118709328D02*
X132757650Y-118756947D01*
X132757650Y-118756947D02*
X132757650Y-118828376D01*
X132757650Y-118828376D02*
X132733841Y-118875995D01*
X132733841Y-118875995D02*
X132710031Y-118899804D01*
X132710031Y-118899804D02*
X132662412Y-118923614D01*
X132662412Y-118923614D02*
X132471936Y-118923614D01*
X132924317Y-118661709D02*
X133257650Y-119161709D01*
X133257650Y-118661709D02*
X132924317Y-119161709D01*
X136770709Y-111414691D02*
X137270709Y-111248025D01*
X137270709Y-111248025D02*
X136770709Y-111081358D01*
X137223090Y-110628978D02*
X137246900Y-110652787D01*
X137246900Y-110652787D02*
X137270709Y-110724216D01*
X137270709Y-110724216D02*
X137270709Y-110771835D01*
X137270709Y-110771835D02*
X137246900Y-110843263D01*
X137246900Y-110843263D02*
X137199280Y-110890882D01*
X137199280Y-110890882D02*
X137151661Y-110914692D01*
X137151661Y-110914692D02*
X137056423Y-110938501D01*
X137056423Y-110938501D02*
X136984995Y-110938501D01*
X136984995Y-110938501D02*
X136889757Y-110914692D01*
X136889757Y-110914692D02*
X136842138Y-110890882D01*
X136842138Y-110890882D02*
X136794519Y-110843263D01*
X136794519Y-110843263D02*
X136770709Y-110771835D01*
X136770709Y-110771835D02*
X136770709Y-110724216D01*
X136770709Y-110724216D02*
X136794519Y-110652787D01*
X136794519Y-110652787D02*
X136818328Y-110628978D01*
X137223090Y-110128978D02*
X137246900Y-110152787D01*
X137246900Y-110152787D02*
X137270709Y-110224216D01*
X137270709Y-110224216D02*
X137270709Y-110271835D01*
X137270709Y-110271835D02*
X137246900Y-110343263D01*
X137246900Y-110343263D02*
X137199280Y-110390882D01*
X137199280Y-110390882D02*
X137151661Y-110414692D01*
X137151661Y-110414692D02*
X137056423Y-110438501D01*
X137056423Y-110438501D02*
X136984995Y-110438501D01*
X136984995Y-110438501D02*
X136889757Y-110414692D01*
X136889757Y-110414692D02*
X136842138Y-110390882D01*
X136842138Y-110390882D02*
X136794519Y-110343263D01*
X136794519Y-110343263D02*
X136770709Y-110271835D01*
X136770709Y-110271835D02*
X136770709Y-110224216D01*
X136770709Y-110224216D02*
X136794519Y-110152787D01*
X136794519Y-110152787D02*
X136818328Y-110128978D01*
D11*
X132563664Y-105242309D02*
X132873188Y-105242309D01*
X132873188Y-105242309D02*
X132706521Y-105432785D01*
X132706521Y-105432785D02*
X132777950Y-105432785D01*
X132777950Y-105432785D02*
X132825569Y-105456595D01*
X132825569Y-105456595D02*
X132849378Y-105480404D01*
X132849378Y-105480404D02*
X132873188Y-105528023D01*
X132873188Y-105528023D02*
X132873188Y-105647071D01*
X132873188Y-105647071D02*
X132849378Y-105694690D01*
X132849378Y-105694690D02*
X132825569Y-105718500D01*
X132825569Y-105718500D02*
X132777950Y-105742309D01*
X132777950Y-105742309D02*
X132635093Y-105742309D01*
X132635093Y-105742309D02*
X132587474Y-105718500D01*
X132587474Y-105718500D02*
X132563664Y-105694690D01*
X133063664Y-105289928D02*
X133087473Y-105266119D01*
X133087473Y-105266119D02*
X133135092Y-105242309D01*
X133135092Y-105242309D02*
X133254140Y-105242309D01*
X133254140Y-105242309D02*
X133301759Y-105266119D01*
X133301759Y-105266119D02*
X133325568Y-105289928D01*
X133325568Y-105289928D02*
X133349378Y-105337547D01*
X133349378Y-105337547D02*
X133349378Y-105385166D01*
X133349378Y-105385166D02*
X133325568Y-105456595D01*
X133325568Y-105456595D02*
X133039854Y-105742309D01*
X133039854Y-105742309D02*
X133349378Y-105742309D01*
X133563663Y-105742309D02*
X133563663Y-105242309D01*
X133563663Y-105242309D02*
X133730330Y-105599452D01*
X133730330Y-105599452D02*
X133896996Y-105242309D01*
X133896996Y-105242309D02*
X133896996Y-105742309D01*
X134135092Y-105742309D02*
X134135092Y-105242309D01*
X134135092Y-105480404D02*
X134420806Y-105480404D01*
X134420806Y-105742309D02*
X134420806Y-105242309D01*
X134611283Y-105408976D02*
X134873188Y-105408976D01*
X134873188Y-105408976D02*
X134611283Y-105742309D01*
X134611283Y-105742309D02*
X134873188Y-105742309D01*
D10*
X120733841Y-118785519D02*
X120686222Y-118761709D01*
X120686222Y-118761709D02*
X120614793Y-118761709D01*
X120614793Y-118761709D02*
X120543365Y-118785519D01*
X120543365Y-118785519D02*
X120495746Y-118833138D01*
X120495746Y-118833138D02*
X120471936Y-118880757D01*
X120471936Y-118880757D02*
X120448127Y-118975995D01*
X120448127Y-118975995D02*
X120448127Y-119047423D01*
X120448127Y-119047423D02*
X120471936Y-119142661D01*
X120471936Y-119142661D02*
X120495746Y-119190280D01*
X120495746Y-119190280D02*
X120543365Y-119237900D01*
X120543365Y-119237900D02*
X120614793Y-119261709D01*
X120614793Y-119261709D02*
X120662412Y-119261709D01*
X120662412Y-119261709D02*
X120733841Y-119237900D01*
X120733841Y-119237900D02*
X120757650Y-119214090D01*
X120757650Y-119214090D02*
X120757650Y-119047423D01*
X120757650Y-119047423D02*
X120662412Y-119047423D01*
X120971936Y-119261709D02*
X120971936Y-118761709D01*
X120971936Y-118761709D02*
X121257650Y-119261709D01*
X121257650Y-119261709D02*
X121257650Y-118761709D01*
X121495746Y-119261709D02*
X121495746Y-118761709D01*
X121495746Y-118761709D02*
X121614794Y-118761709D01*
X121614794Y-118761709D02*
X121686222Y-118785519D01*
X121686222Y-118785519D02*
X121733841Y-118833138D01*
X121733841Y-118833138D02*
X121757651Y-118880757D01*
X121757651Y-118880757D02*
X121781460Y-118975995D01*
X121781460Y-118975995D02*
X121781460Y-119047423D01*
X121781460Y-119047423D02*
X121757651Y-119142661D01*
X121757651Y-119142661D02*
X121733841Y-119190280D01*
X121733841Y-119190280D02*
X121686222Y-119237900D01*
X121686222Y-119237900D02*
X121614794Y-119261709D01*
X121614794Y-119261709D02*
X121495746Y-119261709D01*
X137196900Y-115417072D02*
X137220709Y-115345644D01*
X137220709Y-115345644D02*
X137220709Y-115226596D01*
X137220709Y-115226596D02*
X137196900Y-115178977D01*
X137196900Y-115178977D02*
X137173090Y-115155168D01*
X137173090Y-115155168D02*
X137125471Y-115131358D01*
X137125471Y-115131358D02*
X137077852Y-115131358D01*
X137077852Y-115131358D02*
X137030233Y-115155168D01*
X137030233Y-115155168D02*
X137006423Y-115178977D01*
X137006423Y-115178977D02*
X136982614Y-115226596D01*
X136982614Y-115226596D02*
X136958804Y-115321834D01*
X136958804Y-115321834D02*
X136934995Y-115369453D01*
X136934995Y-115369453D02*
X136911185Y-115393263D01*
X136911185Y-115393263D02*
X136863566Y-115417072D01*
X136863566Y-115417072D02*
X136815947Y-115417072D01*
X136815947Y-115417072D02*
X136768328Y-115393263D01*
X136768328Y-115393263D02*
X136744519Y-115369453D01*
X136744519Y-115369453D02*
X136720709Y-115321834D01*
X136720709Y-115321834D02*
X136720709Y-115202787D01*
X136720709Y-115202787D02*
X136744519Y-115131358D01*
X137173090Y-114631359D02*
X137196900Y-114655168D01*
X137196900Y-114655168D02*
X137220709Y-114726597D01*
X137220709Y-114726597D02*
X137220709Y-114774216D01*
X137220709Y-114774216D02*
X137196900Y-114845644D01*
X137196900Y-114845644D02*
X137149280Y-114893263D01*
X137149280Y-114893263D02*
X137101661Y-114917073D01*
X137101661Y-114917073D02*
X137006423Y-114940882D01*
X137006423Y-114940882D02*
X136934995Y-114940882D01*
X136934995Y-114940882D02*
X136839757Y-114917073D01*
X136839757Y-114917073D02*
X136792138Y-114893263D01*
X136792138Y-114893263D02*
X136744519Y-114845644D01*
X136744519Y-114845644D02*
X136720709Y-114774216D01*
X136720709Y-114774216D02*
X136720709Y-114726597D01*
X136720709Y-114726597D02*
X136744519Y-114655168D01*
X136744519Y-114655168D02*
X136768328Y-114631359D01*
X137220709Y-114178978D02*
X137220709Y-114417073D01*
X137220709Y-114417073D02*
X136720709Y-114417073D01*
X108421936Y-119211709D02*
X108421936Y-118711709D01*
X108421936Y-118711709D02*
X108540984Y-118711709D01*
X108540984Y-118711709D02*
X108612412Y-118735519D01*
X108612412Y-118735519D02*
X108660031Y-118783138D01*
X108660031Y-118783138D02*
X108683841Y-118830757D01*
X108683841Y-118830757D02*
X108707650Y-118925995D01*
X108707650Y-118925995D02*
X108707650Y-118997423D01*
X108707650Y-118997423D02*
X108683841Y-119092661D01*
X108683841Y-119092661D02*
X108660031Y-119140280D01*
X108660031Y-119140280D02*
X108612412Y-119187900D01*
X108612412Y-119187900D02*
X108540984Y-119211709D01*
X108540984Y-119211709D02*
X108421936Y-119211709D01*
X108874317Y-118711709D02*
X109183841Y-118711709D01*
X109183841Y-118711709D02*
X109017174Y-118902185D01*
X109017174Y-118902185D02*
X109088603Y-118902185D01*
X109088603Y-118902185D02*
X109136222Y-118925995D01*
X109136222Y-118925995D02*
X109160031Y-118949804D01*
X109160031Y-118949804D02*
X109183841Y-118997423D01*
X109183841Y-118997423D02*
X109183841Y-119116471D01*
X109183841Y-119116471D02*
X109160031Y-119164090D01*
X109160031Y-119164090D02*
X109136222Y-119187900D01*
X109136222Y-119187900D02*
X109088603Y-119211709D01*
X109088603Y-119211709D02*
X108945746Y-119211709D01*
X108945746Y-119211709D02*
X108898127Y-119187900D01*
X108898127Y-119187900D02*
X108874317Y-119164090D01*
X110471936Y-119211709D02*
X110471936Y-118711709D01*
X110471936Y-118711709D02*
X110590984Y-118711709D01*
X110590984Y-118711709D02*
X110662412Y-118735519D01*
X110662412Y-118735519D02*
X110710031Y-118783138D01*
X110710031Y-118783138D02*
X110733841Y-118830757D01*
X110733841Y-118830757D02*
X110757650Y-118925995D01*
X110757650Y-118925995D02*
X110757650Y-118997423D01*
X110757650Y-118997423D02*
X110733841Y-119092661D01*
X110733841Y-119092661D02*
X110710031Y-119140280D01*
X110710031Y-119140280D02*
X110662412Y-119187900D01*
X110662412Y-119187900D02*
X110590984Y-119211709D01*
X110590984Y-119211709D02*
X110471936Y-119211709D01*
X111186222Y-118878376D02*
X111186222Y-119211709D01*
X111067174Y-118687900D02*
X110948127Y-119045042D01*
X110948127Y-119045042D02*
X111257650Y-119045042D01*
X122500508Y-118761709D02*
X122667174Y-119261709D01*
X122667174Y-119261709D02*
X122833841Y-118761709D01*
X123286221Y-119214090D02*
X123262412Y-119237900D01*
X123262412Y-119237900D02*
X123190983Y-119261709D01*
X123190983Y-119261709D02*
X123143364Y-119261709D01*
X123143364Y-119261709D02*
X123071936Y-119237900D01*
X123071936Y-119237900D02*
X123024317Y-119190280D01*
X123024317Y-119190280D02*
X123000507Y-119142661D01*
X123000507Y-119142661D02*
X122976698Y-119047423D01*
X122976698Y-119047423D02*
X122976698Y-118975995D01*
X122976698Y-118975995D02*
X123000507Y-118880757D01*
X123000507Y-118880757D02*
X123024317Y-118833138D01*
X123024317Y-118833138D02*
X123071936Y-118785519D01*
X123071936Y-118785519D02*
X123143364Y-118761709D01*
X123143364Y-118761709D02*
X123190983Y-118761709D01*
X123190983Y-118761709D02*
X123262412Y-118785519D01*
X123262412Y-118785519D02*
X123286221Y-118809328D01*
X123786221Y-119214090D02*
X123762412Y-119237900D01*
X123762412Y-119237900D02*
X123690983Y-119261709D01*
X123690983Y-119261709D02*
X123643364Y-119261709D01*
X123643364Y-119261709D02*
X123571936Y-119237900D01*
X123571936Y-119237900D02*
X123524317Y-119190280D01*
X123524317Y-119190280D02*
X123500507Y-119142661D01*
X123500507Y-119142661D02*
X123476698Y-119047423D01*
X123476698Y-119047423D02*
X123476698Y-118975995D01*
X123476698Y-118975995D02*
X123500507Y-118880757D01*
X123500507Y-118880757D02*
X123524317Y-118833138D01*
X123524317Y-118833138D02*
X123571936Y-118785519D01*
X123571936Y-118785519D02*
X123643364Y-118761709D01*
X123643364Y-118761709D02*
X123690983Y-118761709D01*
X123690983Y-118761709D02*
X123762412Y-118785519D01*
X123762412Y-118785519D02*
X123786221Y-118809328D01*
X118521936Y-119261709D02*
X118521936Y-118761709D01*
X118521936Y-118761709D02*
X118640984Y-118761709D01*
X118640984Y-118761709D02*
X118712412Y-118785519D01*
X118712412Y-118785519D02*
X118760031Y-118833138D01*
X118760031Y-118833138D02*
X118783841Y-118880757D01*
X118783841Y-118880757D02*
X118807650Y-118975995D01*
X118807650Y-118975995D02*
X118807650Y-119047423D01*
X118807650Y-119047423D02*
X118783841Y-119142661D01*
X118783841Y-119142661D02*
X118760031Y-119190280D01*
X118760031Y-119190280D02*
X118712412Y-119237900D01*
X118712412Y-119237900D02*
X118640984Y-119261709D01*
X118640984Y-119261709D02*
X118521936Y-119261709D01*
X119093365Y-118975995D02*
X119045746Y-118952185D01*
X119045746Y-118952185D02*
X119021936Y-118928376D01*
X119021936Y-118928376D02*
X118998127Y-118880757D01*
X118998127Y-118880757D02*
X118998127Y-118856947D01*
X118998127Y-118856947D02*
X119021936Y-118809328D01*
X119021936Y-118809328D02*
X119045746Y-118785519D01*
X119045746Y-118785519D02*
X119093365Y-118761709D01*
X119093365Y-118761709D02*
X119188603Y-118761709D01*
X119188603Y-118761709D02*
X119236222Y-118785519D01*
X119236222Y-118785519D02*
X119260031Y-118809328D01*
X119260031Y-118809328D02*
X119283841Y-118856947D01*
X119283841Y-118856947D02*
X119283841Y-118880757D01*
X119283841Y-118880757D02*
X119260031Y-118928376D01*
X119260031Y-118928376D02*
X119236222Y-118952185D01*
X119236222Y-118952185D02*
X119188603Y-118975995D01*
X119188603Y-118975995D02*
X119093365Y-118975995D01*
X119093365Y-118975995D02*
X119045746Y-118999804D01*
X119045746Y-118999804D02*
X119021936Y-119023614D01*
X119021936Y-119023614D02*
X118998127Y-119071233D01*
X118998127Y-119071233D02*
X118998127Y-119166471D01*
X118998127Y-119166471D02*
X119021936Y-119214090D01*
X119021936Y-119214090D02*
X119045746Y-119237900D01*
X119045746Y-119237900D02*
X119093365Y-119261709D01*
X119093365Y-119261709D02*
X119188603Y-119261709D01*
X119188603Y-119261709D02*
X119236222Y-119237900D01*
X119236222Y-119237900D02*
X119260031Y-119214090D01*
X119260031Y-119214090D02*
X119283841Y-119166471D01*
X119283841Y-119166471D02*
X119283841Y-119071233D01*
X119283841Y-119071233D02*
X119260031Y-119023614D01*
X119260031Y-119023614D02*
X119236222Y-118999804D01*
X119236222Y-118999804D02*
X119188603Y-118975995D01*
X134450508Y-118661709D02*
X134736222Y-118661709D01*
X134593365Y-119161709D02*
X134593365Y-118661709D01*
X134855269Y-118661709D02*
X135188602Y-119161709D01*
X135188602Y-118661709D02*
X134855269Y-119161709D01*
X130450508Y-118661709D02*
X130617174Y-119161709D01*
X130617174Y-119161709D02*
X130783841Y-118661709D01*
X131236221Y-119114090D02*
X131212412Y-119137900D01*
X131212412Y-119137900D02*
X131140983Y-119161709D01*
X131140983Y-119161709D02*
X131093364Y-119161709D01*
X131093364Y-119161709D02*
X131021936Y-119137900D01*
X131021936Y-119137900D02*
X130974317Y-119090280D01*
X130974317Y-119090280D02*
X130950507Y-119042661D01*
X130950507Y-119042661D02*
X130926698Y-118947423D01*
X130926698Y-118947423D02*
X130926698Y-118875995D01*
X130926698Y-118875995D02*
X130950507Y-118780757D01*
X130950507Y-118780757D02*
X130974317Y-118733138D01*
X130974317Y-118733138D02*
X131021936Y-118685519D01*
X131021936Y-118685519D02*
X131093364Y-118661709D01*
X131093364Y-118661709D02*
X131140983Y-118661709D01*
X131140983Y-118661709D02*
X131212412Y-118685519D01*
X131212412Y-118685519D02*
X131236221Y-118709328D01*
X131736221Y-119114090D02*
X131712412Y-119137900D01*
X131712412Y-119137900D02*
X131640983Y-119161709D01*
X131640983Y-119161709D02*
X131593364Y-119161709D01*
X131593364Y-119161709D02*
X131521936Y-119137900D01*
X131521936Y-119137900D02*
X131474317Y-119090280D01*
X131474317Y-119090280D02*
X131450507Y-119042661D01*
X131450507Y-119042661D02*
X131426698Y-118947423D01*
X131426698Y-118947423D02*
X131426698Y-118875995D01*
X131426698Y-118875995D02*
X131450507Y-118780757D01*
X131450507Y-118780757D02*
X131474317Y-118733138D01*
X131474317Y-118733138D02*
X131521936Y-118685519D01*
X131521936Y-118685519D02*
X131593364Y-118661709D01*
X131593364Y-118661709D02*
X131640983Y-118661709D01*
X131640983Y-118661709D02*
X131712412Y-118685519D01*
X131712412Y-118685519D02*
X131736221Y-118709328D01*
X116521936Y-119261709D02*
X116521936Y-118761709D01*
X116521936Y-118761709D02*
X116640984Y-118761709D01*
X116640984Y-118761709D02*
X116712412Y-118785519D01*
X116712412Y-118785519D02*
X116760031Y-118833138D01*
X116760031Y-118833138D02*
X116783841Y-118880757D01*
X116783841Y-118880757D02*
X116807650Y-118975995D01*
X116807650Y-118975995D02*
X116807650Y-119047423D01*
X116807650Y-119047423D02*
X116783841Y-119142661D01*
X116783841Y-119142661D02*
X116760031Y-119190280D01*
X116760031Y-119190280D02*
X116712412Y-119237900D01*
X116712412Y-119237900D02*
X116640984Y-119261709D01*
X116640984Y-119261709D02*
X116521936Y-119261709D01*
X116974317Y-118761709D02*
X117307650Y-118761709D01*
X117307650Y-118761709D02*
X117093365Y-119261709D01*
X128733841Y-118685519D02*
X128686222Y-118661709D01*
X128686222Y-118661709D02*
X128614793Y-118661709D01*
X128614793Y-118661709D02*
X128543365Y-118685519D01*
X128543365Y-118685519D02*
X128495746Y-118733138D01*
X128495746Y-118733138D02*
X128471936Y-118780757D01*
X128471936Y-118780757D02*
X128448127Y-118875995D01*
X128448127Y-118875995D02*
X128448127Y-118947423D01*
X128448127Y-118947423D02*
X128471936Y-119042661D01*
X128471936Y-119042661D02*
X128495746Y-119090280D01*
X128495746Y-119090280D02*
X128543365Y-119137900D01*
X128543365Y-119137900D02*
X128614793Y-119161709D01*
X128614793Y-119161709D02*
X128662412Y-119161709D01*
X128662412Y-119161709D02*
X128733841Y-119137900D01*
X128733841Y-119137900D02*
X128757650Y-119114090D01*
X128757650Y-119114090D02*
X128757650Y-118947423D01*
X128757650Y-118947423D02*
X128662412Y-118947423D01*
X128971936Y-119161709D02*
X128971936Y-118661709D01*
X128971936Y-118661709D02*
X129257650Y-119161709D01*
X129257650Y-119161709D02*
X129257650Y-118661709D01*
X129495746Y-119161709D02*
X129495746Y-118661709D01*
X129495746Y-118661709D02*
X129614794Y-118661709D01*
X129614794Y-118661709D02*
X129686222Y-118685519D01*
X129686222Y-118685519D02*
X129733841Y-118733138D01*
X129733841Y-118733138D02*
X129757651Y-118780757D01*
X129757651Y-118780757D02*
X129781460Y-118875995D01*
X129781460Y-118875995D02*
X129781460Y-118947423D01*
X129781460Y-118947423D02*
X129757651Y-119042661D01*
X129757651Y-119042661D02*
X129733841Y-119090280D01*
X129733841Y-119090280D02*
X129686222Y-119137900D01*
X129686222Y-119137900D02*
X129614794Y-119161709D01*
X129614794Y-119161709D02*
X129495746Y-119161709D01*
X136794519Y-109031358D02*
X136770709Y-109078977D01*
X136770709Y-109078977D02*
X136770709Y-109150406D01*
X136770709Y-109150406D02*
X136794519Y-109221834D01*
X136794519Y-109221834D02*
X136842138Y-109269453D01*
X136842138Y-109269453D02*
X136889757Y-109293263D01*
X136889757Y-109293263D02*
X136984995Y-109317072D01*
X136984995Y-109317072D02*
X137056423Y-109317072D01*
X137056423Y-109317072D02*
X137151661Y-109293263D01*
X137151661Y-109293263D02*
X137199280Y-109269453D01*
X137199280Y-109269453D02*
X137246900Y-109221834D01*
X137246900Y-109221834D02*
X137270709Y-109150406D01*
X137270709Y-109150406D02*
X137270709Y-109102787D01*
X137270709Y-109102787D02*
X137246900Y-109031358D01*
X137246900Y-109031358D02*
X137223090Y-109007549D01*
X137223090Y-109007549D02*
X137056423Y-109007549D01*
X137056423Y-109007549D02*
X137056423Y-109102787D01*
X137270709Y-108793263D02*
X136770709Y-108793263D01*
X136770709Y-108793263D02*
X137270709Y-108507549D01*
X137270709Y-108507549D02*
X136770709Y-108507549D01*
X137270709Y-108269453D02*
X136770709Y-108269453D01*
X136770709Y-108269453D02*
X136770709Y-108150405D01*
X136770709Y-108150405D02*
X136794519Y-108078977D01*
X136794519Y-108078977D02*
X136842138Y-108031358D01*
X136842138Y-108031358D02*
X136889757Y-108007548D01*
X136889757Y-108007548D02*
X136984995Y-107983739D01*
X136984995Y-107983739D02*
X137056423Y-107983739D01*
X137056423Y-107983739D02*
X137151661Y-108007548D01*
X137151661Y-108007548D02*
X137199280Y-108031358D01*
X137199280Y-108031358D02*
X137246900Y-108078977D01*
X137246900Y-108078977D02*
X137270709Y-108150405D01*
X137270709Y-108150405D02*
X137270709Y-108269453D01*
X106271936Y-119211709D02*
X106271936Y-118711709D01*
X106271936Y-118711709D02*
X106390984Y-118711709D01*
X106390984Y-118711709D02*
X106462412Y-118735519D01*
X106462412Y-118735519D02*
X106510031Y-118783138D01*
X106510031Y-118783138D02*
X106533841Y-118830757D01*
X106533841Y-118830757D02*
X106557650Y-118925995D01*
X106557650Y-118925995D02*
X106557650Y-118997423D01*
X106557650Y-118997423D02*
X106533841Y-119092661D01*
X106533841Y-119092661D02*
X106510031Y-119140280D01*
X106510031Y-119140280D02*
X106462412Y-119187900D01*
X106462412Y-119187900D02*
X106390984Y-119211709D01*
X106390984Y-119211709D02*
X106271936Y-119211709D01*
X106748127Y-118759328D02*
X106771936Y-118735519D01*
X106771936Y-118735519D02*
X106819555Y-118711709D01*
X106819555Y-118711709D02*
X106938603Y-118711709D01*
X106938603Y-118711709D02*
X106986222Y-118735519D01*
X106986222Y-118735519D02*
X107010031Y-118759328D01*
X107010031Y-118759328D02*
X107033841Y-118806947D01*
X107033841Y-118806947D02*
X107033841Y-118854566D01*
X107033841Y-118854566D02*
X107010031Y-118925995D01*
X107010031Y-118925995D02*
X106724317Y-119211709D01*
X106724317Y-119211709D02*
X107033841Y-119211709D01*
X114571936Y-119211709D02*
X114571936Y-118711709D01*
X114571936Y-118711709D02*
X114690984Y-118711709D01*
X114690984Y-118711709D02*
X114762412Y-118735519D01*
X114762412Y-118735519D02*
X114810031Y-118783138D01*
X114810031Y-118783138D02*
X114833841Y-118830757D01*
X114833841Y-118830757D02*
X114857650Y-118925995D01*
X114857650Y-118925995D02*
X114857650Y-118997423D01*
X114857650Y-118997423D02*
X114833841Y-119092661D01*
X114833841Y-119092661D02*
X114810031Y-119140280D01*
X114810031Y-119140280D02*
X114762412Y-119187900D01*
X114762412Y-119187900D02*
X114690984Y-119211709D01*
X114690984Y-119211709D02*
X114571936Y-119211709D01*
X115286222Y-118711709D02*
X115190984Y-118711709D01*
X115190984Y-118711709D02*
X115143365Y-118735519D01*
X115143365Y-118735519D02*
X115119555Y-118759328D01*
X115119555Y-118759328D02*
X115071936Y-118830757D01*
X115071936Y-118830757D02*
X115048127Y-118925995D01*
X115048127Y-118925995D02*
X115048127Y-119116471D01*
X115048127Y-119116471D02*
X115071936Y-119164090D01*
X115071936Y-119164090D02*
X115095746Y-119187900D01*
X115095746Y-119187900D02*
X115143365Y-119211709D01*
X115143365Y-119211709D02*
X115238603Y-119211709D01*
X115238603Y-119211709D02*
X115286222Y-119187900D01*
X115286222Y-119187900D02*
X115310031Y-119164090D01*
X115310031Y-119164090D02*
X115333841Y-119116471D01*
X115333841Y-119116471D02*
X115333841Y-118997423D01*
X115333841Y-118997423D02*
X115310031Y-118949804D01*
X115310031Y-118949804D02*
X115286222Y-118925995D01*
X115286222Y-118925995D02*
X115238603Y-118902185D01*
X115238603Y-118902185D02*
X115143365Y-118902185D01*
X115143365Y-118902185D02*
X115095746Y-118925995D01*
X115095746Y-118925995D02*
X115071936Y-118949804D01*
X115071936Y-118949804D02*
X115048127Y-118997423D01*
X137196900Y-113417072D02*
X137220709Y-113345644D01*
X137220709Y-113345644D02*
X137220709Y-113226596D01*
X137220709Y-113226596D02*
X137196900Y-113178977D01*
X137196900Y-113178977D02*
X137173090Y-113155168D01*
X137173090Y-113155168D02*
X137125471Y-113131358D01*
X137125471Y-113131358D02*
X137077852Y-113131358D01*
X137077852Y-113131358D02*
X137030233Y-113155168D01*
X137030233Y-113155168D02*
X137006423Y-113178977D01*
X137006423Y-113178977D02*
X136982614Y-113226596D01*
X136982614Y-113226596D02*
X136958804Y-113321834D01*
X136958804Y-113321834D02*
X136934995Y-113369453D01*
X136934995Y-113369453D02*
X136911185Y-113393263D01*
X136911185Y-113393263D02*
X136863566Y-113417072D01*
X136863566Y-113417072D02*
X136815947Y-113417072D01*
X136815947Y-113417072D02*
X136768328Y-113393263D01*
X136768328Y-113393263D02*
X136744519Y-113369453D01*
X136744519Y-113369453D02*
X136720709Y-113321834D01*
X136720709Y-113321834D02*
X136720709Y-113202787D01*
X136720709Y-113202787D02*
X136744519Y-113131358D01*
X137220709Y-112917073D02*
X136720709Y-112917073D01*
X136720709Y-112917073D02*
X136720709Y-112798025D01*
X136720709Y-112798025D02*
X136744519Y-112726597D01*
X136744519Y-112726597D02*
X136792138Y-112678978D01*
X136792138Y-112678978D02*
X136839757Y-112655168D01*
X136839757Y-112655168D02*
X136934995Y-112631359D01*
X136934995Y-112631359D02*
X137006423Y-112631359D01*
X137006423Y-112631359D02*
X137101661Y-112655168D01*
X137101661Y-112655168D02*
X137149280Y-112678978D01*
X137149280Y-112678978D02*
X137196900Y-112726597D01*
X137196900Y-112726597D02*
X137220709Y-112798025D01*
X137220709Y-112798025D02*
X137220709Y-112917073D01*
X137077852Y-112440882D02*
X137077852Y-112202787D01*
X137220709Y-112488501D02*
X136720709Y-112321835D01*
X136720709Y-112321835D02*
X137220709Y-112155168D01*
X112321936Y-119211709D02*
X112321936Y-118711709D01*
X112321936Y-118711709D02*
X112440984Y-118711709D01*
X112440984Y-118711709D02*
X112512412Y-118735519D01*
X112512412Y-118735519D02*
X112560031Y-118783138D01*
X112560031Y-118783138D02*
X112583841Y-118830757D01*
X112583841Y-118830757D02*
X112607650Y-118925995D01*
X112607650Y-118925995D02*
X112607650Y-118997423D01*
X112607650Y-118997423D02*
X112583841Y-119092661D01*
X112583841Y-119092661D02*
X112560031Y-119140280D01*
X112560031Y-119140280D02*
X112512412Y-119187900D01*
X112512412Y-119187900D02*
X112440984Y-119211709D01*
X112440984Y-119211709D02*
X112321936Y-119211709D01*
X113060031Y-118711709D02*
X112821936Y-118711709D01*
X112821936Y-118711709D02*
X112798127Y-118949804D01*
X112798127Y-118949804D02*
X112821936Y-118925995D01*
X112821936Y-118925995D02*
X112869555Y-118902185D01*
X112869555Y-118902185D02*
X112988603Y-118902185D01*
X112988603Y-118902185D02*
X113036222Y-118925995D01*
X113036222Y-118925995D02*
X113060031Y-118949804D01*
X113060031Y-118949804D02*
X113083841Y-118997423D01*
X113083841Y-118997423D02*
X113083841Y-119116471D01*
X113083841Y-119116471D02*
X113060031Y-119164090D01*
X113060031Y-119164090D02*
X113036222Y-119187900D01*
X113036222Y-119187900D02*
X112988603Y-119211709D01*
X112988603Y-119211709D02*
X112869555Y-119211709D01*
X112869555Y-119211709D02*
X112821936Y-119187900D01*
X112821936Y-119187900D02*
X112798127Y-119164090D01*
D12*
X110391919Y-104094766D02*
X109915728Y-104428099D01*
X110391919Y-104666194D02*
X109391919Y-104666194D01*
X109391919Y-104666194D02*
X109391919Y-104285242D01*
X109391919Y-104285242D02*
X109439538Y-104190004D01*
X109439538Y-104190004D02*
X109487157Y-104142385D01*
X109487157Y-104142385D02*
X109582395Y-104094766D01*
X109582395Y-104094766D02*
X109725252Y-104094766D01*
X109725252Y-104094766D02*
X109820490Y-104142385D01*
X109820490Y-104142385D02*
X109868109Y-104190004D01*
X109868109Y-104190004D02*
X109915728Y-104285242D01*
X109915728Y-104285242D02*
X109915728Y-104666194D01*
X110391919Y-103142385D02*
X110391919Y-103713813D01*
X110391919Y-103428099D02*
X109391919Y-103428099D01*
X109391919Y-103428099D02*
X109534776Y-103523337D01*
X109534776Y-103523337D02*
X109630014Y-103618575D01*
X109630014Y-103618575D02*
X109677633Y-103713813D01*
X104550195Y-91977919D02*
X104550195Y-92787442D01*
X104550195Y-92787442D02*
X104597814Y-92882680D01*
X104597814Y-92882680D02*
X104645433Y-92930300D01*
X104645433Y-92930300D02*
X104740671Y-92977919D01*
X104740671Y-92977919D02*
X104931147Y-92977919D01*
X104931147Y-92977919D02*
X105026385Y-92930300D01*
X105026385Y-92930300D02*
X105074004Y-92882680D01*
X105074004Y-92882680D02*
X105121623Y-92787442D01*
X105121623Y-92787442D02*
X105121623Y-91977919D01*
X105550195Y-92073157D02*
X105597814Y-92025538D01*
X105597814Y-92025538D02*
X105693052Y-91977919D01*
X105693052Y-91977919D02*
X105931147Y-91977919D01*
X105931147Y-91977919D02*
X106026385Y-92025538D01*
X106026385Y-92025538D02*
X106074004Y-92073157D01*
X106074004Y-92073157D02*
X106121623Y-92168395D01*
X106121623Y-92168395D02*
X106121623Y-92263633D01*
X106121623Y-92263633D02*
X106074004Y-92406490D01*
X106074004Y-92406490D02*
X105502576Y-92977919D01*
X105502576Y-92977919D02*
X106121623Y-92977919D01*
X132191742Y-103932919D02*
X131858409Y-103456728D01*
X131620314Y-103932919D02*
X131620314Y-102932919D01*
X131620314Y-102932919D02*
X132001266Y-102932919D01*
X132001266Y-102932919D02*
X132096504Y-102980538D01*
X132096504Y-102980538D02*
X132144123Y-103028157D01*
X132144123Y-103028157D02*
X132191742Y-103123395D01*
X132191742Y-103123395D02*
X132191742Y-103266252D01*
X132191742Y-103266252D02*
X132144123Y-103361490D01*
X132144123Y-103361490D02*
X132096504Y-103409109D01*
X132096504Y-103409109D02*
X132001266Y-103456728D01*
X132001266Y-103456728D02*
X131620314Y-103456728D01*
X133144123Y-103932919D02*
X132572695Y-103932919D01*
X132858409Y-103932919D02*
X132858409Y-102932919D01*
X132858409Y-102932919D02*
X132763171Y-103075776D01*
X132763171Y-103075776D02*
X132667933Y-103171014D01*
X132667933Y-103171014D02*
X132572695Y-103218633D01*
X133525076Y-103028157D02*
X133572695Y-102980538D01*
X133572695Y-102980538D02*
X133667933Y-102932919D01*
X133667933Y-102932919D02*
X133906028Y-102932919D01*
X133906028Y-102932919D02*
X134001266Y-102980538D01*
X134001266Y-102980538D02*
X134048885Y-103028157D01*
X134048885Y-103028157D02*
X134096504Y-103123395D01*
X134096504Y-103123395D02*
X134096504Y-103218633D01*
X134096504Y-103218633D02*
X134048885Y-103361490D01*
X134048885Y-103361490D02*
X133477457Y-103932919D01*
X133477457Y-103932919D02*
X134096504Y-103932919D01*
X104102438Y-121369999D02*
X104054819Y-121465237D01*
X104054819Y-121465237D02*
X104054819Y-121608094D01*
X104054819Y-121608094D02*
X104102438Y-121750951D01*
X104102438Y-121750951D02*
X104197676Y-121846189D01*
X104197676Y-121846189D02*
X104292914Y-121893808D01*
X104292914Y-121893808D02*
X104483390Y-121941427D01*
X104483390Y-121941427D02*
X104626247Y-121941427D01*
X104626247Y-121941427D02*
X104816723Y-121893808D01*
X104816723Y-121893808D02*
X104911961Y-121846189D01*
X104911961Y-121846189D02*
X105007200Y-121750951D01*
X105007200Y-121750951D02*
X105054819Y-121608094D01*
X105054819Y-121608094D02*
X105054819Y-121512856D01*
X105054819Y-121512856D02*
X105007200Y-121369999D01*
X105007200Y-121369999D02*
X104959580Y-121322380D01*
X104959580Y-121322380D02*
X104626247Y-121322380D01*
X104626247Y-121322380D02*
X104626247Y-121512856D01*
X105054819Y-120893808D02*
X104054819Y-120893808D01*
X104054819Y-120893808D02*
X104054819Y-120512856D01*
X104054819Y-120512856D02*
X104102438Y-120417618D01*
X104102438Y-120417618D02*
X104150057Y-120369999D01*
X104150057Y-120369999D02*
X104245295Y-120322380D01*
X104245295Y-120322380D02*
X104388152Y-120322380D01*
X104388152Y-120322380D02*
X104483390Y-120369999D01*
X104483390Y-120369999D02*
X104531009Y-120417618D01*
X104531009Y-120417618D02*
X104578628Y-120512856D01*
X104578628Y-120512856D02*
X104578628Y-120893808D01*
X105054819Y-119893808D02*
X104054819Y-119893808D01*
X104054819Y-119227142D02*
X104054819Y-119036666D01*
X104054819Y-119036666D02*
X104102438Y-118941428D01*
X104102438Y-118941428D02*
X104197676Y-118846190D01*
X104197676Y-118846190D02*
X104388152Y-118798571D01*
X104388152Y-118798571D02*
X104721485Y-118798571D01*
X104721485Y-118798571D02*
X104911961Y-118846190D01*
X104911961Y-118846190D02*
X105007200Y-118941428D01*
X105007200Y-118941428D02*
X105054819Y-119036666D01*
X105054819Y-119036666D02*
X105054819Y-119227142D01*
X105054819Y-119227142D02*
X105007200Y-119322380D01*
X105007200Y-119322380D02*
X104911961Y-119417618D01*
X104911961Y-119417618D02*
X104721485Y-119465237D01*
X104721485Y-119465237D02*
X104388152Y-119465237D01*
X104388152Y-119465237D02*
X104197676Y-119417618D01*
X104197676Y-119417618D02*
X104102438Y-119322380D01*
X104102438Y-119322380D02*
X104054819Y-119227142D01*
X127117933Y-112237680D02*
X127070314Y-112285300D01*
X127070314Y-112285300D02*
X126927457Y-112332919D01*
X126927457Y-112332919D02*
X126832219Y-112332919D01*
X126832219Y-112332919D02*
X126689362Y-112285300D01*
X126689362Y-112285300D02*
X126594124Y-112190061D01*
X126594124Y-112190061D02*
X126546505Y-112094823D01*
X126546505Y-112094823D02*
X126498886Y-111904347D01*
X126498886Y-111904347D02*
X126498886Y-111761490D01*
X126498886Y-111761490D02*
X126546505Y-111571014D01*
X126546505Y-111571014D02*
X126594124Y-111475776D01*
X126594124Y-111475776D02*
X126689362Y-111380538D01*
X126689362Y-111380538D02*
X126832219Y-111332919D01*
X126832219Y-111332919D02*
X126927457Y-111332919D01*
X126927457Y-111332919D02*
X127070314Y-111380538D01*
X127070314Y-111380538D02*
X127117933Y-111428157D01*
X127975076Y-111332919D02*
X127784600Y-111332919D01*
X127784600Y-111332919D02*
X127689362Y-111380538D01*
X127689362Y-111380538D02*
X127641743Y-111428157D01*
X127641743Y-111428157D02*
X127546505Y-111571014D01*
X127546505Y-111571014D02*
X127498886Y-111761490D01*
X127498886Y-111761490D02*
X127498886Y-112142442D01*
X127498886Y-112142442D02*
X127546505Y-112237680D01*
X127546505Y-112237680D02*
X127594124Y-112285300D01*
X127594124Y-112285300D02*
X127689362Y-112332919D01*
X127689362Y-112332919D02*
X127879838Y-112332919D01*
X127879838Y-112332919D02*
X127975076Y-112285300D01*
X127975076Y-112285300D02*
X128022695Y-112237680D01*
X128022695Y-112237680D02*
X128070314Y-112142442D01*
X128070314Y-112142442D02*
X128070314Y-111904347D01*
X128070314Y-111904347D02*
X128022695Y-111809109D01*
X128022695Y-111809109D02*
X127975076Y-111761490D01*
X127975076Y-111761490D02*
X127879838Y-111713871D01*
X127879838Y-111713871D02*
X127689362Y-111713871D01*
X127689362Y-111713871D02*
X127594124Y-111761490D01*
X127594124Y-111761490D02*
X127546505Y-111809109D01*
X127546505Y-111809109D02*
X127498886Y-111904347D01*
X121320433Y-92987680D02*
X121272814Y-93035300D01*
X121272814Y-93035300D02*
X121129957Y-93082919D01*
X121129957Y-93082919D02*
X121034719Y-93082919D01*
X121034719Y-93082919D02*
X120891862Y-93035300D01*
X120891862Y-93035300D02*
X120796624Y-92940061D01*
X120796624Y-92940061D02*
X120749005Y-92844823D01*
X120749005Y-92844823D02*
X120701386Y-92654347D01*
X120701386Y-92654347D02*
X120701386Y-92511490D01*
X120701386Y-92511490D02*
X120749005Y-92321014D01*
X120749005Y-92321014D02*
X120796624Y-92225776D01*
X120796624Y-92225776D02*
X120891862Y-92130538D01*
X120891862Y-92130538D02*
X121034719Y-92082919D01*
X121034719Y-92082919D02*
X121129957Y-92082919D01*
X121129957Y-92082919D02*
X121272814Y-92130538D01*
X121272814Y-92130538D02*
X121320433Y-92178157D01*
X121653767Y-92082919D02*
X122272814Y-92082919D01*
X122272814Y-92082919D02*
X121939481Y-92463871D01*
X121939481Y-92463871D02*
X122082338Y-92463871D01*
X122082338Y-92463871D02*
X122177576Y-92511490D01*
X122177576Y-92511490D02*
X122225195Y-92559109D01*
X122225195Y-92559109D02*
X122272814Y-92654347D01*
X122272814Y-92654347D02*
X122272814Y-92892442D01*
X122272814Y-92892442D02*
X122225195Y-92987680D01*
X122225195Y-92987680D02*
X122177576Y-93035300D01*
X122177576Y-93035300D02*
X122082338Y-93082919D01*
X122082338Y-93082919D02*
X121796624Y-93082919D01*
X121796624Y-93082919D02*
X121701386Y-93035300D01*
X121701386Y-93035300D02*
X121653767Y-92987680D01*
X130765728Y-111454290D02*
X131241919Y-111454290D01*
X130241919Y-111787623D02*
X130765728Y-111454290D01*
X130765728Y-111454290D02*
X130241919Y-111120957D01*
X131241919Y-110263814D02*
X131241919Y-110835242D01*
X131241919Y-110549528D02*
X130241919Y-110549528D01*
X130241919Y-110549528D02*
X130384776Y-110644766D01*
X130384776Y-110644766D02*
X130480014Y-110740004D01*
X130480014Y-110740004D02*
X130527633Y-110835242D01*
X127267933Y-116637680D02*
X127220314Y-116685300D01*
X127220314Y-116685300D02*
X127077457Y-116732919D01*
X127077457Y-116732919D02*
X126982219Y-116732919D01*
X126982219Y-116732919D02*
X126839362Y-116685300D01*
X126839362Y-116685300D02*
X126744124Y-116590061D01*
X126744124Y-116590061D02*
X126696505Y-116494823D01*
X126696505Y-116494823D02*
X126648886Y-116304347D01*
X126648886Y-116304347D02*
X126648886Y-116161490D01*
X126648886Y-116161490D02*
X126696505Y-115971014D01*
X126696505Y-115971014D02*
X126744124Y-115875776D01*
X126744124Y-115875776D02*
X126839362Y-115780538D01*
X126839362Y-115780538D02*
X126982219Y-115732919D01*
X126982219Y-115732919D02*
X127077457Y-115732919D01*
X127077457Y-115732919D02*
X127220314Y-115780538D01*
X127220314Y-115780538D02*
X127267933Y-115828157D01*
X128125076Y-116066252D02*
X128125076Y-116732919D01*
X127886981Y-115685300D02*
X127648886Y-116399585D01*
X127648886Y-116399585D02*
X128267933Y-116399585D01*
X137710910Y-107132919D02*
X137710910Y-106132919D01*
X138139481Y-106228157D02*
X138187100Y-106180538D01*
X138187100Y-106180538D02*
X138282338Y-106132919D01*
X138282338Y-106132919D02*
X138520433Y-106132919D01*
X138520433Y-106132919D02*
X138615671Y-106180538D01*
X138615671Y-106180538D02*
X138663290Y-106228157D01*
X138663290Y-106228157D02*
X138710909Y-106323395D01*
X138710909Y-106323395D02*
X138710909Y-106418633D01*
X138710909Y-106418633D02*
X138663290Y-106561490D01*
X138663290Y-106561490D02*
X138091862Y-107132919D01*
X138091862Y-107132919D02*
X138710909Y-107132919D01*
X139710909Y-107037680D02*
X139663290Y-107085300D01*
X139663290Y-107085300D02*
X139520433Y-107132919D01*
X139520433Y-107132919D02*
X139425195Y-107132919D01*
X139425195Y-107132919D02*
X139282338Y-107085300D01*
X139282338Y-107085300D02*
X139187100Y-106990061D01*
X139187100Y-106990061D02*
X139139481Y-106894823D01*
X139139481Y-106894823D02*
X139091862Y-106704347D01*
X139091862Y-106704347D02*
X139091862Y-106561490D01*
X139091862Y-106561490D02*
X139139481Y-106371014D01*
X139139481Y-106371014D02*
X139187100Y-106275776D01*
X139187100Y-106275776D02*
X139282338Y-106180538D01*
X139282338Y-106180538D02*
X139425195Y-106132919D01*
X139425195Y-106132919D02*
X139520433Y-106132919D01*
X139520433Y-106132919D02*
X139663290Y-106180538D01*
X139663290Y-106180538D02*
X139710909Y-106228157D01*
X104575195Y-99182919D02*
X104575195Y-99992442D01*
X104575195Y-99992442D02*
X104622814Y-100087680D01*
X104622814Y-100087680D02*
X104670433Y-100135300D01*
X104670433Y-100135300D02*
X104765671Y-100182919D01*
X104765671Y-100182919D02*
X104956147Y-100182919D01*
X104956147Y-100182919D02*
X105051385Y-100135300D01*
X105051385Y-100135300D02*
X105099004Y-100087680D01*
X105099004Y-100087680D02*
X105146623Y-99992442D01*
X105146623Y-99992442D02*
X105146623Y-99182919D01*
X105527576Y-99182919D02*
X106146623Y-99182919D01*
X106146623Y-99182919D02*
X105813290Y-99563871D01*
X105813290Y-99563871D02*
X105956147Y-99563871D01*
X105956147Y-99563871D02*
X106051385Y-99611490D01*
X106051385Y-99611490D02*
X106099004Y-99659109D01*
X106099004Y-99659109D02*
X106146623Y-99754347D01*
X106146623Y-99754347D02*
X106146623Y-99992442D01*
X106146623Y-99992442D02*
X106099004Y-100087680D01*
X106099004Y-100087680D02*
X106051385Y-100135300D01*
X106051385Y-100135300D02*
X105956147Y-100182919D01*
X105956147Y-100182919D02*
X105670433Y-100182919D01*
X105670433Y-100182919D02*
X105575195Y-100135300D01*
X105575195Y-100135300D02*
X105527576Y-100087680D01*
X110396680Y-110394766D02*
X110444300Y-110442385D01*
X110444300Y-110442385D02*
X110491919Y-110585242D01*
X110491919Y-110585242D02*
X110491919Y-110680480D01*
X110491919Y-110680480D02*
X110444300Y-110823337D01*
X110444300Y-110823337D02*
X110349061Y-110918575D01*
X110349061Y-110918575D02*
X110253823Y-110966194D01*
X110253823Y-110966194D02*
X110063347Y-111013813D01*
X110063347Y-111013813D02*
X109920490Y-111013813D01*
X109920490Y-111013813D02*
X109730014Y-110966194D01*
X109730014Y-110966194D02*
X109634776Y-110918575D01*
X109634776Y-110918575D02*
X109539538Y-110823337D01*
X109539538Y-110823337D02*
X109491919Y-110680480D01*
X109491919Y-110680480D02*
X109491919Y-110585242D01*
X109491919Y-110585242D02*
X109539538Y-110442385D01*
X109539538Y-110442385D02*
X109587157Y-110394766D01*
X109587157Y-110013813D02*
X109539538Y-109966194D01*
X109539538Y-109966194D02*
X109491919Y-109870956D01*
X109491919Y-109870956D02*
X109491919Y-109632861D01*
X109491919Y-109632861D02*
X109539538Y-109537623D01*
X109539538Y-109537623D02*
X109587157Y-109490004D01*
X109587157Y-109490004D02*
X109682395Y-109442385D01*
X109682395Y-109442385D02*
X109777633Y-109442385D01*
X109777633Y-109442385D02*
X109920490Y-109490004D01*
X109920490Y-109490004D02*
X110491919Y-110061432D01*
X110491919Y-110061432D02*
X110491919Y-109442385D01*
X110406680Y-98939766D02*
X110454300Y-98987385D01*
X110454300Y-98987385D02*
X110501919Y-99130242D01*
X110501919Y-99130242D02*
X110501919Y-99225480D01*
X110501919Y-99225480D02*
X110454300Y-99368337D01*
X110454300Y-99368337D02*
X110359061Y-99463575D01*
X110359061Y-99463575D02*
X110263823Y-99511194D01*
X110263823Y-99511194D02*
X110073347Y-99558813D01*
X110073347Y-99558813D02*
X109930490Y-99558813D01*
X109930490Y-99558813D02*
X109740014Y-99511194D01*
X109740014Y-99511194D02*
X109644776Y-99463575D01*
X109644776Y-99463575D02*
X109549538Y-99368337D01*
X109549538Y-99368337D02*
X109501919Y-99225480D01*
X109501919Y-99225480D02*
X109501919Y-99130242D01*
X109501919Y-99130242D02*
X109549538Y-98987385D01*
X109549538Y-98987385D02*
X109597157Y-98939766D01*
X109501919Y-98606432D02*
X109501919Y-97939766D01*
X109501919Y-97939766D02*
X110501919Y-98368337D01*
X102206742Y-115132919D02*
X101873409Y-114656728D01*
X101635314Y-115132919D02*
X101635314Y-114132919D01*
X101635314Y-114132919D02*
X102016266Y-114132919D01*
X102016266Y-114132919D02*
X102111504Y-114180538D01*
X102111504Y-114180538D02*
X102159123Y-114228157D01*
X102159123Y-114228157D02*
X102206742Y-114323395D01*
X102206742Y-114323395D02*
X102206742Y-114466252D01*
X102206742Y-114466252D02*
X102159123Y-114561490D01*
X102159123Y-114561490D02*
X102111504Y-114609109D01*
X102111504Y-114609109D02*
X102016266Y-114656728D01*
X102016266Y-114656728D02*
X101635314Y-114656728D01*
X103159123Y-115132919D02*
X102587695Y-115132919D01*
X102873409Y-115132919D02*
X102873409Y-114132919D01*
X102873409Y-114132919D02*
X102778171Y-114275776D01*
X102778171Y-114275776D02*
X102682933Y-114371014D01*
X102682933Y-114371014D02*
X102587695Y-114418633D01*
X103778171Y-114132919D02*
X103873409Y-114132919D01*
X103873409Y-114132919D02*
X103968647Y-114180538D01*
X103968647Y-114180538D02*
X104016266Y-114228157D01*
X104016266Y-114228157D02*
X104063885Y-114323395D01*
X104063885Y-114323395D02*
X104111504Y-114513871D01*
X104111504Y-114513871D02*
X104111504Y-114751966D01*
X104111504Y-114751966D02*
X104063885Y-114942442D01*
X104063885Y-114942442D02*
X104016266Y-115037680D01*
X104016266Y-115037680D02*
X103968647Y-115085300D01*
X103968647Y-115085300D02*
X103873409Y-115132919D01*
X103873409Y-115132919D02*
X103778171Y-115132919D01*
X103778171Y-115132919D02*
X103682933Y-115085300D01*
X103682933Y-115085300D02*
X103635314Y-115037680D01*
X103635314Y-115037680D02*
X103587695Y-114942442D01*
X103587695Y-114942442D02*
X103540076Y-114751966D01*
X103540076Y-114751966D02*
X103540076Y-114513871D01*
X103540076Y-114513871D02*
X103587695Y-114323395D01*
X103587695Y-114323395D02*
X103635314Y-114228157D01*
X103635314Y-114228157D02*
X103682933Y-114180538D01*
X103682933Y-114180538D02*
X103778171Y-114132919D01*
X118175195Y-97482919D02*
X118175195Y-98292442D01*
X118175195Y-98292442D02*
X118222814Y-98387680D01*
X118222814Y-98387680D02*
X118270433Y-98435300D01*
X118270433Y-98435300D02*
X118365671Y-98482919D01*
X118365671Y-98482919D02*
X118556147Y-98482919D01*
X118556147Y-98482919D02*
X118651385Y-98435300D01*
X118651385Y-98435300D02*
X118699004Y-98387680D01*
X118699004Y-98387680D02*
X118746623Y-98292442D01*
X118746623Y-98292442D02*
X118746623Y-97482919D01*
X119746623Y-98482919D02*
X119175195Y-98482919D01*
X119460909Y-98482919D02*
X119460909Y-97482919D01*
X119460909Y-97482919D02*
X119365671Y-97625776D01*
X119365671Y-97625776D02*
X119270433Y-97721014D01*
X119270433Y-97721014D02*
X119175195Y-97768633D01*
X127217933Y-103982919D02*
X126884600Y-103506728D01*
X126646505Y-103982919D02*
X126646505Y-102982919D01*
X126646505Y-102982919D02*
X127027457Y-102982919D01*
X127027457Y-102982919D02*
X127122695Y-103030538D01*
X127122695Y-103030538D02*
X127170314Y-103078157D01*
X127170314Y-103078157D02*
X127217933Y-103173395D01*
X127217933Y-103173395D02*
X127217933Y-103316252D01*
X127217933Y-103316252D02*
X127170314Y-103411490D01*
X127170314Y-103411490D02*
X127122695Y-103459109D01*
X127122695Y-103459109D02*
X127027457Y-103506728D01*
X127027457Y-103506728D02*
X126646505Y-103506728D01*
X127789362Y-103411490D02*
X127694124Y-103363871D01*
X127694124Y-103363871D02*
X127646505Y-103316252D01*
X127646505Y-103316252D02*
X127598886Y-103221014D01*
X127598886Y-103221014D02*
X127598886Y-103173395D01*
X127598886Y-103173395D02*
X127646505Y-103078157D01*
X127646505Y-103078157D02*
X127694124Y-103030538D01*
X127694124Y-103030538D02*
X127789362Y-102982919D01*
X127789362Y-102982919D02*
X127979838Y-102982919D01*
X127979838Y-102982919D02*
X128075076Y-103030538D01*
X128075076Y-103030538D02*
X128122695Y-103078157D01*
X128122695Y-103078157D02*
X128170314Y-103173395D01*
X128170314Y-103173395D02*
X128170314Y-103221014D01*
X128170314Y-103221014D02*
X128122695Y-103316252D01*
X128122695Y-103316252D02*
X128075076Y-103363871D01*
X128075076Y-103363871D02*
X127979838Y-103411490D01*
X127979838Y-103411490D02*
X127789362Y-103411490D01*
X127789362Y-103411490D02*
X127694124Y-103459109D01*
X127694124Y-103459109D02*
X127646505Y-103506728D01*
X127646505Y-103506728D02*
X127598886Y-103601966D01*
X127598886Y-103601966D02*
X127598886Y-103792442D01*
X127598886Y-103792442D02*
X127646505Y-103887680D01*
X127646505Y-103887680D02*
X127694124Y-103935300D01*
X127694124Y-103935300D02*
X127789362Y-103982919D01*
X127789362Y-103982919D02*
X127979838Y-103982919D01*
X127979838Y-103982919D02*
X128075076Y-103935300D01*
X128075076Y-103935300D02*
X128122695Y-103887680D01*
X128122695Y-103887680D02*
X128170314Y-103792442D01*
X128170314Y-103792442D02*
X128170314Y-103601966D01*
X128170314Y-103601966D02*
X128122695Y-103506728D01*
X128122695Y-103506728D02*
X128075076Y-103459109D01*
X128075076Y-103459109D02*
X127979838Y-103411490D01*
X114570433Y-93087680D02*
X114522814Y-93135300D01*
X114522814Y-93135300D02*
X114379957Y-93182919D01*
X114379957Y-93182919D02*
X114284719Y-93182919D01*
X114284719Y-93182919D02*
X114141862Y-93135300D01*
X114141862Y-93135300D02*
X114046624Y-93040061D01*
X114046624Y-93040061D02*
X113999005Y-92944823D01*
X113999005Y-92944823D02*
X113951386Y-92754347D01*
X113951386Y-92754347D02*
X113951386Y-92611490D01*
X113951386Y-92611490D02*
X113999005Y-92421014D01*
X113999005Y-92421014D02*
X114046624Y-92325776D01*
X114046624Y-92325776D02*
X114141862Y-92230538D01*
X114141862Y-92230538D02*
X114284719Y-92182919D01*
X114284719Y-92182919D02*
X114379957Y-92182919D01*
X114379957Y-92182919D02*
X114522814Y-92230538D01*
X114522814Y-92230538D02*
X114570433Y-92278157D01*
X115522814Y-93182919D02*
X114951386Y-93182919D01*
X115237100Y-93182919D02*
X115237100Y-92182919D01*
X115237100Y-92182919D02*
X115141862Y-92325776D01*
X115141862Y-92325776D02*
X115046624Y-92421014D01*
X115046624Y-92421014D02*
X114951386Y-92468633D01*
X106906742Y-115182919D02*
X106573409Y-114706728D01*
X106335314Y-115182919D02*
X106335314Y-114182919D01*
X106335314Y-114182919D02*
X106716266Y-114182919D01*
X106716266Y-114182919D02*
X106811504Y-114230538D01*
X106811504Y-114230538D02*
X106859123Y-114278157D01*
X106859123Y-114278157D02*
X106906742Y-114373395D01*
X106906742Y-114373395D02*
X106906742Y-114516252D01*
X106906742Y-114516252D02*
X106859123Y-114611490D01*
X106859123Y-114611490D02*
X106811504Y-114659109D01*
X106811504Y-114659109D02*
X106716266Y-114706728D01*
X106716266Y-114706728D02*
X106335314Y-114706728D01*
X107859123Y-115182919D02*
X107287695Y-115182919D01*
X107573409Y-115182919D02*
X107573409Y-114182919D01*
X107573409Y-114182919D02*
X107478171Y-114325776D01*
X107478171Y-114325776D02*
X107382933Y-114421014D01*
X107382933Y-114421014D02*
X107287695Y-114468633D01*
X108811504Y-115182919D02*
X108240076Y-115182919D01*
X108525790Y-115182919D02*
X108525790Y-114182919D01*
X108525790Y-114182919D02*
X108430552Y-114325776D01*
X108430552Y-114325776D02*
X108335314Y-114421014D01*
X108335314Y-114421014D02*
X108240076Y-114468633D01*
X126054819Y-121865237D02*
X126864342Y-121865237D01*
X126864342Y-121865237D02*
X126959580Y-121817618D01*
X126959580Y-121817618D02*
X127007200Y-121769999D01*
X127007200Y-121769999D02*
X127054819Y-121674761D01*
X127054819Y-121674761D02*
X127054819Y-121484285D01*
X127054819Y-121484285D02*
X127007200Y-121389047D01*
X127007200Y-121389047D02*
X126959580Y-121341428D01*
X126959580Y-121341428D02*
X126864342Y-121293809D01*
X126864342Y-121293809D02*
X126054819Y-121293809D01*
X126769104Y-120865237D02*
X126769104Y-120389047D01*
X127054819Y-120960475D02*
X126054819Y-120627142D01*
X126054819Y-120627142D02*
X127054819Y-120293809D01*
X127054819Y-119389047D02*
X126578628Y-119722380D01*
X127054819Y-119960475D02*
X126054819Y-119960475D01*
X126054819Y-119960475D02*
X126054819Y-119579523D01*
X126054819Y-119579523D02*
X126102438Y-119484285D01*
X126102438Y-119484285D02*
X126150057Y-119436666D01*
X126150057Y-119436666D02*
X126245295Y-119389047D01*
X126245295Y-119389047D02*
X126388152Y-119389047D01*
X126388152Y-119389047D02*
X126483390Y-119436666D01*
X126483390Y-119436666D02*
X126531009Y-119484285D01*
X126531009Y-119484285D02*
X126578628Y-119579523D01*
X126578628Y-119579523D02*
X126578628Y-119960475D01*
X126054819Y-119103332D02*
X126054819Y-118531904D01*
X127054819Y-118817618D02*
X126054819Y-118817618D01*
X132405433Y-99782919D02*
X132072100Y-99306728D01*
X131834005Y-99782919D02*
X131834005Y-98782919D01*
X131834005Y-98782919D02*
X132214957Y-98782919D01*
X132214957Y-98782919D02*
X132310195Y-98830538D01*
X132310195Y-98830538D02*
X132357814Y-98878157D01*
X132357814Y-98878157D02*
X132405433Y-98973395D01*
X132405433Y-98973395D02*
X132405433Y-99116252D01*
X132405433Y-99116252D02*
X132357814Y-99211490D01*
X132357814Y-99211490D02*
X132310195Y-99259109D01*
X132310195Y-99259109D02*
X132214957Y-99306728D01*
X132214957Y-99306728D02*
X131834005Y-99306728D01*
X132738767Y-98782919D02*
X133357814Y-98782919D01*
X133357814Y-98782919D02*
X133024481Y-99163871D01*
X133024481Y-99163871D02*
X133167338Y-99163871D01*
X133167338Y-99163871D02*
X133262576Y-99211490D01*
X133262576Y-99211490D02*
X133310195Y-99259109D01*
X133310195Y-99259109D02*
X133357814Y-99354347D01*
X133357814Y-99354347D02*
X133357814Y-99592442D01*
X133357814Y-99592442D02*
X133310195Y-99687680D01*
X133310195Y-99687680D02*
X133262576Y-99735300D01*
X133262576Y-99735300D02*
X133167338Y-99782919D01*
X133167338Y-99782919D02*
X132881624Y-99782919D01*
X132881624Y-99782919D02*
X132786386Y-99735300D01*
X132786386Y-99735300D02*
X132738767Y-99687680D01*
X117710909Y-111056728D02*
X117710909Y-111532919D01*
X117377576Y-110532919D02*
X117710909Y-111056728D01*
X117710909Y-111056728D02*
X118044242Y-110532919D01*
X118329957Y-110628157D02*
X118377576Y-110580538D01*
X118377576Y-110580538D02*
X118472814Y-110532919D01*
X118472814Y-110532919D02*
X118710909Y-110532919D01*
X118710909Y-110532919D02*
X118806147Y-110580538D01*
X118806147Y-110580538D02*
X118853766Y-110628157D01*
X118853766Y-110628157D02*
X118901385Y-110723395D01*
X118901385Y-110723395D02*
X118901385Y-110818633D01*
X118901385Y-110818633D02*
X118853766Y-110961490D01*
X118853766Y-110961490D02*
X118282338Y-111532919D01*
X118282338Y-111532919D02*
X118901385Y-111532919D01*
X116496623Y-117432919D02*
X115925195Y-117432919D01*
X116210909Y-117432919D02*
X116210909Y-116432919D01*
X116210909Y-116432919D02*
X116115671Y-116575776D01*
X116115671Y-116575776D02*
X116020433Y-116671014D01*
X116020433Y-116671014D02*
X115925195Y-116718633D01*
X117353766Y-116432919D02*
X117163290Y-116432919D01*
X117163290Y-116432919D02*
X117068052Y-116480538D01*
X117068052Y-116480538D02*
X117020433Y-116528157D01*
X117020433Y-116528157D02*
X116925195Y-116671014D01*
X116925195Y-116671014D02*
X116877576Y-116861490D01*
X116877576Y-116861490D02*
X116877576Y-117242442D01*
X116877576Y-117242442D02*
X116925195Y-117337680D01*
X116925195Y-117337680D02*
X116972814Y-117385300D01*
X116972814Y-117385300D02*
X117068052Y-117432919D01*
X117068052Y-117432919D02*
X117258528Y-117432919D01*
X117258528Y-117432919D02*
X117353766Y-117385300D01*
X117353766Y-117385300D02*
X117401385Y-117337680D01*
X117401385Y-117337680D02*
X117449004Y-117242442D01*
X117449004Y-117242442D02*
X117449004Y-117004347D01*
X117449004Y-117004347D02*
X117401385Y-116909109D01*
X117401385Y-116909109D02*
X117353766Y-116861490D01*
X117353766Y-116861490D02*
X117258528Y-116813871D01*
X117258528Y-116813871D02*
X117068052Y-116813871D01*
X117068052Y-116813871D02*
X116972814Y-116861490D01*
X116972814Y-116861490D02*
X116925195Y-116909109D01*
X116925195Y-116909109D02*
X116877576Y-117004347D01*
X117877576Y-117432919D02*
X117877576Y-116432919D01*
X117877576Y-116432919D02*
X118210909Y-117147204D01*
X118210909Y-117147204D02*
X118544242Y-116432919D01*
X118544242Y-116432919D02*
X118544242Y-117432919D01*
X119020433Y-117432919D02*
X119020433Y-116432919D01*
X119020433Y-116909109D02*
X119591861Y-116909109D01*
X119591861Y-117432919D02*
X119591861Y-116432919D01*
X119972814Y-116766252D02*
X120496623Y-116766252D01*
X120496623Y-116766252D02*
X119972814Y-117432919D01*
X119972814Y-117432919D02*
X120496623Y-117432919D01*
X131896505Y-93202919D02*
X131896505Y-92202919D01*
X131896505Y-92202919D02*
X132134600Y-92202919D01*
X132134600Y-92202919D02*
X132277457Y-92250538D01*
X132277457Y-92250538D02*
X132372695Y-92345776D01*
X132372695Y-92345776D02*
X132420314Y-92441014D01*
X132420314Y-92441014D02*
X132467933Y-92631490D01*
X132467933Y-92631490D02*
X132467933Y-92774347D01*
X132467933Y-92774347D02*
X132420314Y-92964823D01*
X132420314Y-92964823D02*
X132372695Y-93060061D01*
X132372695Y-93060061D02*
X132277457Y-93155300D01*
X132277457Y-93155300D02*
X132134600Y-93202919D01*
X132134600Y-93202919D02*
X131896505Y-93202919D01*
X132801267Y-92202919D02*
X133420314Y-92202919D01*
X133420314Y-92202919D02*
X133086981Y-92583871D01*
X133086981Y-92583871D02*
X133229838Y-92583871D01*
X133229838Y-92583871D02*
X133325076Y-92631490D01*
X133325076Y-92631490D02*
X133372695Y-92679109D01*
X133372695Y-92679109D02*
X133420314Y-92774347D01*
X133420314Y-92774347D02*
X133420314Y-93012442D01*
X133420314Y-93012442D02*
X133372695Y-93107680D01*
X133372695Y-93107680D02*
X133325076Y-93155300D01*
X133325076Y-93155300D02*
X133229838Y-93202919D01*
X133229838Y-93202919D02*
X132944124Y-93202919D01*
X132944124Y-93202919D02*
X132848886Y-93155300D01*
X132848886Y-93155300D02*
X132801267Y-93107680D01*
X127005433Y-99682919D02*
X126672100Y-99206728D01*
X126434005Y-99682919D02*
X126434005Y-98682919D01*
X126434005Y-98682919D02*
X126814957Y-98682919D01*
X126814957Y-98682919D02*
X126910195Y-98730538D01*
X126910195Y-98730538D02*
X126957814Y-98778157D01*
X126957814Y-98778157D02*
X127005433Y-98873395D01*
X127005433Y-98873395D02*
X127005433Y-99016252D01*
X127005433Y-99016252D02*
X126957814Y-99111490D01*
X126957814Y-99111490D02*
X126910195Y-99159109D01*
X126910195Y-99159109D02*
X126814957Y-99206728D01*
X126814957Y-99206728D02*
X126434005Y-99206728D01*
X127386386Y-98778157D02*
X127434005Y-98730538D01*
X127434005Y-98730538D02*
X127529243Y-98682919D01*
X127529243Y-98682919D02*
X127767338Y-98682919D01*
X127767338Y-98682919D02*
X127862576Y-98730538D01*
X127862576Y-98730538D02*
X127910195Y-98778157D01*
X127910195Y-98778157D02*
X127957814Y-98873395D01*
X127957814Y-98873395D02*
X127957814Y-98968633D01*
X127957814Y-98968633D02*
X127910195Y-99111490D01*
X127910195Y-99111490D02*
X127338767Y-99682919D01*
X127338767Y-99682919D02*
X127957814Y-99682919D01*
X137313291Y-96685300D02*
X137456148Y-96732919D01*
X137456148Y-96732919D02*
X137694243Y-96732919D01*
X137694243Y-96732919D02*
X137789481Y-96685300D01*
X137789481Y-96685300D02*
X137837100Y-96637680D01*
X137837100Y-96637680D02*
X137884719Y-96542442D01*
X137884719Y-96542442D02*
X137884719Y-96447204D01*
X137884719Y-96447204D02*
X137837100Y-96351966D01*
X137837100Y-96351966D02*
X137789481Y-96304347D01*
X137789481Y-96304347D02*
X137694243Y-96256728D01*
X137694243Y-96256728D02*
X137503767Y-96209109D01*
X137503767Y-96209109D02*
X137408529Y-96161490D01*
X137408529Y-96161490D02*
X137360910Y-96113871D01*
X137360910Y-96113871D02*
X137313291Y-96018633D01*
X137313291Y-96018633D02*
X137313291Y-95923395D01*
X137313291Y-95923395D02*
X137360910Y-95828157D01*
X137360910Y-95828157D02*
X137408529Y-95780538D01*
X137408529Y-95780538D02*
X137503767Y-95732919D01*
X137503767Y-95732919D02*
X137741862Y-95732919D01*
X137741862Y-95732919D02*
X137884719Y-95780538D01*
X138313291Y-96732919D02*
X138313291Y-95732919D01*
X138313291Y-95732919D02*
X138694243Y-95732919D01*
X138694243Y-95732919D02*
X138789481Y-95780538D01*
X138789481Y-95780538D02*
X138837100Y-95828157D01*
X138837100Y-95828157D02*
X138884719Y-95923395D01*
X138884719Y-95923395D02*
X138884719Y-96066252D01*
X138884719Y-96066252D02*
X138837100Y-96161490D01*
X138837100Y-96161490D02*
X138789481Y-96209109D01*
X138789481Y-96209109D02*
X138694243Y-96256728D01*
X138694243Y-96256728D02*
X138313291Y-96256728D01*
X139313291Y-96732919D02*
X139313291Y-95732919D01*
X104675195Y-106132919D02*
X104675195Y-106942442D01*
X104675195Y-106942442D02*
X104722814Y-107037680D01*
X104722814Y-107037680D02*
X104770433Y-107085300D01*
X104770433Y-107085300D02*
X104865671Y-107132919D01*
X104865671Y-107132919D02*
X105056147Y-107132919D01*
X105056147Y-107132919D02*
X105151385Y-107085300D01*
X105151385Y-107085300D02*
X105199004Y-107037680D01*
X105199004Y-107037680D02*
X105246623Y-106942442D01*
X105246623Y-106942442D02*
X105246623Y-106132919D01*
X106151385Y-106466252D02*
X106151385Y-107132919D01*
X105913290Y-106085300D02*
X105675195Y-106799585D01*
X105675195Y-106799585D02*
X106294242Y-106799585D01*
X126496505Y-93202919D02*
X126496505Y-92202919D01*
X126496505Y-92202919D02*
X126734600Y-92202919D01*
X126734600Y-92202919D02*
X126877457Y-92250538D01*
X126877457Y-92250538D02*
X126972695Y-92345776D01*
X126972695Y-92345776D02*
X127020314Y-92441014D01*
X127020314Y-92441014D02*
X127067933Y-92631490D01*
X127067933Y-92631490D02*
X127067933Y-92774347D01*
X127067933Y-92774347D02*
X127020314Y-92964823D01*
X127020314Y-92964823D02*
X126972695Y-93060061D01*
X126972695Y-93060061D02*
X126877457Y-93155300D01*
X126877457Y-93155300D02*
X126734600Y-93202919D01*
X126734600Y-93202919D02*
X126496505Y-93202919D01*
X128020314Y-93202919D02*
X127448886Y-93202919D01*
X127734600Y-93202919D02*
X127734600Y-92202919D01*
X127734600Y-92202919D02*
X127639362Y-92345776D01*
X127639362Y-92345776D02*
X127544124Y-92441014D01*
X127544124Y-92441014D02*
X127448886Y-92488633D01*
X127167933Y-108132919D02*
X126834600Y-107656728D01*
X126596505Y-108132919D02*
X126596505Y-107132919D01*
X126596505Y-107132919D02*
X126977457Y-107132919D01*
X126977457Y-107132919D02*
X127072695Y-107180538D01*
X127072695Y-107180538D02*
X127120314Y-107228157D01*
X127120314Y-107228157D02*
X127167933Y-107323395D01*
X127167933Y-107323395D02*
X127167933Y-107466252D01*
X127167933Y-107466252D02*
X127120314Y-107561490D01*
X127120314Y-107561490D02*
X127072695Y-107609109D01*
X127072695Y-107609109D02*
X126977457Y-107656728D01*
X126977457Y-107656728D02*
X126596505Y-107656728D01*
X127644124Y-108132919D02*
X127834600Y-108132919D01*
X127834600Y-108132919D02*
X127929838Y-108085300D01*
X127929838Y-108085300D02*
X127977457Y-108037680D01*
X127977457Y-108037680D02*
X128072695Y-107894823D01*
X128072695Y-107894823D02*
X128120314Y-107704347D01*
X128120314Y-107704347D02*
X128120314Y-107323395D01*
X128120314Y-107323395D02*
X128072695Y-107228157D01*
X128072695Y-107228157D02*
X128025076Y-107180538D01*
X128025076Y-107180538D02*
X127929838Y-107132919D01*
X127929838Y-107132919D02*
X127739362Y-107132919D01*
X127739362Y-107132919D02*
X127644124Y-107180538D01*
X127644124Y-107180538D02*
X127596505Y-107228157D01*
X127596505Y-107228157D02*
X127548886Y-107323395D01*
X127548886Y-107323395D02*
X127548886Y-107561490D01*
X127548886Y-107561490D02*
X127596505Y-107656728D01*
X127596505Y-107656728D02*
X127644124Y-107704347D01*
X127644124Y-107704347D02*
X127739362Y-107751966D01*
X127739362Y-107751966D02*
X127929838Y-107751966D01*
X127929838Y-107751966D02*
X128025076Y-107704347D01*
X128025076Y-107704347D02*
X128072695Y-107656728D01*
X128072695Y-107656728D02*
X128120314Y-107561490D01*
D13*
%TO.C,R1*%
X110852100Y-104155164D02*
X110852100Y-103701036D01*
X112322100Y-104155164D02*
X112322100Y-103701036D01*
%TO.C,U2*%
X105312100Y-93363100D02*
X103362100Y-93363100D01*
X105312100Y-93363100D02*
X107262100Y-93363100D01*
X105312100Y-98483100D02*
X103362100Y-98483100D01*
X105312100Y-98483100D02*
X107262100Y-98483100D01*
X102612100Y-93458100D02*
X102372100Y-93128100D01*
X102852100Y-93128100D01*
X102612100Y-93458100D01*
G36*
X102612100Y-93458100D02*
G01*
X102372100Y-93128100D01*
X102852100Y-93128100D01*
X102612100Y-93458100D01*
G37*
%TO.C,R12*%
X132607536Y-100993100D02*
X133061664Y-100993100D01*
X132607536Y-102463100D02*
X133061664Y-102463100D01*
%TO.C,GPIO*%
X105777100Y-121788100D02*
X105777100Y-120678100D01*
X106887100Y-121788100D02*
X105777100Y-121788100D01*
X107887100Y-119568100D02*
X123997100Y-119568100D01*
X107887100Y-121788100D02*
X107887100Y-119568100D01*
X107887100Y-121788100D02*
X123997100Y-121788100D01*
X123997100Y-121788100D02*
X123997100Y-119568100D01*
%TO.C,C6*%
X125684600Y-111083100D02*
X129604600Y-111083100D01*
X129604600Y-109173100D02*
X125684600Y-109173100D01*
X129604600Y-111083100D02*
X129604600Y-109173100D01*
%TO.C,C3*%
X119167100Y-93423100D02*
X119167100Y-95333100D01*
X119167100Y-95333100D02*
X123087100Y-95333100D01*
X123087100Y-93423100D02*
X119167100Y-93423100D01*
%TO.C,Y1*%
X131727100Y-107718100D02*
X131727100Y-115813100D01*
X131727100Y-115813100D02*
X135747100Y-115813100D01*
X135747100Y-115813100D02*
X135747100Y-107718100D01*
%TO.C,C4*%
X125834600Y-115483100D02*
X129754600Y-115483100D01*
X129754600Y-113573100D02*
X125834600Y-113573100D01*
X129754600Y-115483100D02*
X129754600Y-113573100D01*
%TO.C,I2C*%
X137577100Y-107918100D02*
X138687100Y-107918100D01*
X137577100Y-109028100D02*
X137577100Y-107918100D01*
X137577100Y-110028100D02*
X137577100Y-116138100D01*
X137577100Y-110028100D02*
X139797100Y-110028100D01*
X137577100Y-116138100D02*
X139797100Y-116138100D01*
X139797100Y-110028100D02*
X139797100Y-116138100D01*
%TO.C,U3*%
X105337100Y-100568100D02*
X103387100Y-100568100D01*
X105337100Y-100568100D02*
X107287100Y-100568100D01*
X105337100Y-105688100D02*
X103387100Y-105688100D01*
X105337100Y-105688100D02*
X107287100Y-105688100D01*
X102637100Y-100663100D02*
X102397100Y-100333100D01*
X102877100Y-100333100D01*
X102637100Y-100663100D01*
G36*
X102637100Y-100663100D02*
G01*
X102397100Y-100333100D01*
X102877100Y-100333100D01*
X102637100Y-100663100D01*
G37*
%TO.C,C2*%
X110832100Y-108628100D02*
X110832100Y-112548100D01*
X110832100Y-112548100D02*
X112742100Y-112548100D01*
X112742100Y-112548100D02*
X112742100Y-108628100D01*
%TO.C,C7*%
X110932100Y-97078100D02*
X110932100Y-100998100D01*
X110932100Y-100998100D02*
X112842100Y-100998100D01*
X112842100Y-100998100D02*
X112842100Y-97078100D01*
%TO.C,R10*%
X102622536Y-115593100D02*
X103076664Y-115593100D01*
X102622536Y-117063100D02*
X103076664Y-117063100D01*
%TO.C,U1*%
X115327100Y-100268100D02*
X115327100Y-100543100D01*
X115327100Y-107488100D02*
X115327100Y-107213100D01*
X115602100Y-100268100D02*
X115327100Y-100268100D01*
X115602100Y-107488100D02*
X115327100Y-107488100D01*
X122272100Y-100268100D02*
X122547100Y-100268100D01*
X122272100Y-107488100D02*
X122547100Y-107488100D01*
X122547100Y-100268100D02*
X122547100Y-100543100D01*
X122547100Y-107488100D02*
X122547100Y-107213100D01*
X114737100Y-100543100D02*
X114397100Y-100073100D01*
X115077100Y-100073100D01*
X114737100Y-100543100D01*
G36*
X114737100Y-100543100D02*
G01*
X114397100Y-100073100D01*
X115077100Y-100073100D01*
X114737100Y-100543100D01*
G37*
%TO.C,R8*%
X127157536Y-100893100D02*
X127611664Y-100893100D01*
X127157536Y-102363100D02*
X127611664Y-102363100D01*
%TO.C,C1*%
X112417100Y-93523100D02*
X112417100Y-95433100D01*
X112417100Y-95433100D02*
X116337100Y-95433100D01*
X116337100Y-93523100D02*
X112417100Y-93523100D01*
%TO.C,R11*%
X107322536Y-115643100D02*
X107776664Y-115643100D01*
X107322536Y-117113100D02*
X107776664Y-117113100D01*
%TO.C,UART*%
X127777100Y-121688100D02*
X127777100Y-120578100D01*
X128887100Y-121688100D02*
X127777100Y-121688100D01*
X129887100Y-119468100D02*
X135997100Y-119468100D01*
X129887100Y-121688100D02*
X129887100Y-119468100D01*
X129887100Y-121688100D02*
X135997100Y-121688100D01*
X135997100Y-121688100D02*
X135997100Y-119468100D01*
%TO.C,R3*%
X132799164Y-96943100D02*
X132345036Y-96943100D01*
X132799164Y-98413100D02*
X132345036Y-98413100D01*
%TO.C,Y2*%
X113352100Y-112018100D02*
X113352100Y-116038100D01*
X113352100Y-116038100D02*
X121447100Y-116038100D01*
X121447100Y-112018100D02*
X113352100Y-112018100D01*
%TO.C,D3*%
X130349600Y-93443100D02*
X130349600Y-95713100D01*
X130349600Y-95713100D02*
X134234600Y-95713100D01*
X134234600Y-93443100D02*
X130349600Y-93443100D01*
%TO.C,R2*%
X127399164Y-96843100D02*
X126945036Y-96843100D01*
X127399164Y-98313100D02*
X126945036Y-98313100D01*
%TO.C,SPI*%
X136177100Y-97568100D02*
X137287100Y-97568100D01*
X136177100Y-98678100D02*
X136177100Y-97568100D01*
X136177100Y-99678100D02*
X136177100Y-103788100D01*
X136177100Y-99678100D02*
X138287100Y-99678100D01*
X136177100Y-103788100D02*
X140397100Y-103788100D01*
X138287100Y-97568100D02*
X140397100Y-97568100D01*
X138287100Y-99678100D02*
X138287100Y-97568100D01*
X140397100Y-97568100D02*
X140397100Y-103788100D01*
%TO.C,U4*%
X105437100Y-107518100D02*
X103487100Y-107518100D01*
X105437100Y-107518100D02*
X107387100Y-107518100D01*
X105437100Y-112638100D02*
X103487100Y-112638100D01*
X105437100Y-112638100D02*
X107387100Y-112638100D01*
X102737100Y-107613100D02*
X102497100Y-107283100D01*
X102977100Y-107283100D01*
X102737100Y-107613100D01*
G36*
X102737100Y-107613100D02*
G01*
X102497100Y-107283100D01*
X102977100Y-107283100D01*
X102737100Y-107613100D01*
G37*
%TO.C,D1*%
X124949600Y-93443100D02*
X124949600Y-95713100D01*
X124949600Y-95713100D02*
X128834600Y-95713100D01*
X128834600Y-93443100D02*
X124949600Y-93443100D01*
%TO.C,R9*%
X127561664Y-104993100D02*
X127107536Y-104993100D01*
X127561664Y-106463100D02*
X127107536Y-106463100D01*
%TD*%
M02*
