%TF.GenerationSoftware,KiCad,Pcbnew,9.0.3*%
%TF.CreationDate,2025-11-05T23:16:55+02:00*%
%TF.ProjectId,Graduation Project,47726164-7561-4746-996f-6e2050726f6a,rev?*%
%TF.SameCoordinates,Original*%
%TF.FileFunction,Legend,Bot*%
%TF.FilePolarity,Positive*%
%FSLAX46Y46*%
G04 Gerber Fmt 4.6, Leading zero omitted, Abs format (unit mm)*
G04 Created by KiCad (PCBNEW 9.0.3) date 2025-11-05 23:16:55*
%MOMM*%
%LPD*%
G01*
G04 APERTURE LIST*
%ADD10C,0.250000*%
%ADD11C,0.010000*%
G04 APERTURE END LIST*
D10*
X137247431Y-116854675D02*
X137247431Y-115854675D01*
X137247431Y-115854675D02*
X136914098Y-116568960D01*
X136914098Y-116568960D02*
X136580765Y-115854675D01*
X136580765Y-115854675D02*
X136580765Y-116854675D01*
X135676003Y-116854675D02*
X135676003Y-116330865D01*
X135676003Y-116330865D02*
X135723622Y-116235627D01*
X135723622Y-116235627D02*
X135818860Y-116188008D01*
X135818860Y-116188008D02*
X136009336Y-116188008D01*
X136009336Y-116188008D02*
X136104574Y-116235627D01*
X135676003Y-116807056D02*
X135771241Y-116854675D01*
X135771241Y-116854675D02*
X136009336Y-116854675D01*
X136009336Y-116854675D02*
X136104574Y-116807056D01*
X136104574Y-116807056D02*
X136152193Y-116711817D01*
X136152193Y-116711817D02*
X136152193Y-116616579D01*
X136152193Y-116616579D02*
X136104574Y-116521341D01*
X136104574Y-116521341D02*
X136009336Y-116473722D01*
X136009336Y-116473722D02*
X135771241Y-116473722D01*
X135771241Y-116473722D02*
X135676003Y-116426103D01*
X134771241Y-116854675D02*
X134771241Y-115854675D01*
X134771241Y-116807056D02*
X134866479Y-116854675D01*
X134866479Y-116854675D02*
X135056955Y-116854675D01*
X135056955Y-116854675D02*
X135152193Y-116807056D01*
X135152193Y-116807056D02*
X135199812Y-116759436D01*
X135199812Y-116759436D02*
X135247431Y-116664198D01*
X135247431Y-116664198D02*
X135247431Y-116378484D01*
X135247431Y-116378484D02*
X135199812Y-116283246D01*
X135199812Y-116283246D02*
X135152193Y-116235627D01*
X135152193Y-116235627D02*
X135056955Y-116188008D01*
X135056955Y-116188008D02*
X134866479Y-116188008D01*
X134866479Y-116188008D02*
X134771241Y-116235627D01*
X133914098Y-116807056D02*
X134009336Y-116854675D01*
X134009336Y-116854675D02*
X134199812Y-116854675D01*
X134199812Y-116854675D02*
X134295050Y-116807056D01*
X134295050Y-116807056D02*
X134342669Y-116711817D01*
X134342669Y-116711817D02*
X134342669Y-116330865D01*
X134342669Y-116330865D02*
X134295050Y-116235627D01*
X134295050Y-116235627D02*
X134199812Y-116188008D01*
X134199812Y-116188008D02*
X134009336Y-116188008D01*
X134009336Y-116188008D02*
X133914098Y-116235627D01*
X133914098Y-116235627D02*
X133866479Y-116330865D01*
X133866479Y-116330865D02*
X133866479Y-116426103D01*
X133866479Y-116426103D02*
X134342669Y-116521341D01*
X132342669Y-116330865D02*
X132199812Y-116378484D01*
X132199812Y-116378484D02*
X132152193Y-116426103D01*
X132152193Y-116426103D02*
X132104574Y-116521341D01*
X132104574Y-116521341D02*
X132104574Y-116664198D01*
X132104574Y-116664198D02*
X132152193Y-116759436D01*
X132152193Y-116759436D02*
X132199812Y-116807056D01*
X132199812Y-116807056D02*
X132295050Y-116854675D01*
X132295050Y-116854675D02*
X132676002Y-116854675D01*
X132676002Y-116854675D02*
X132676002Y-115854675D01*
X132676002Y-115854675D02*
X132342669Y-115854675D01*
X132342669Y-115854675D02*
X132247431Y-115902294D01*
X132247431Y-115902294D02*
X132199812Y-115949913D01*
X132199812Y-115949913D02*
X132152193Y-116045151D01*
X132152193Y-116045151D02*
X132152193Y-116140389D01*
X132152193Y-116140389D02*
X132199812Y-116235627D01*
X132199812Y-116235627D02*
X132247431Y-116283246D01*
X132247431Y-116283246D02*
X132342669Y-116330865D01*
X132342669Y-116330865D02*
X132676002Y-116330865D01*
X131771240Y-116188008D02*
X131533145Y-116854675D01*
X131295050Y-116188008D02*
X131533145Y-116854675D01*
X131533145Y-116854675D02*
X131628383Y-117092770D01*
X131628383Y-117092770D02*
X131676002Y-117140389D01*
X131676002Y-117140389D02*
X131771240Y-117188008D01*
X130914097Y-116759436D02*
X130866478Y-116807056D01*
X130866478Y-116807056D02*
X130914097Y-116854675D01*
X130914097Y-116854675D02*
X130961716Y-116807056D01*
X130961716Y-116807056D02*
X130914097Y-116759436D01*
X130914097Y-116759436D02*
X130914097Y-116854675D01*
X130914097Y-116235627D02*
X130866478Y-116283246D01*
X130866478Y-116283246D02*
X130914097Y-116330865D01*
X130914097Y-116330865D02*
X130961716Y-116283246D01*
X130961716Y-116283246D02*
X130914097Y-116235627D01*
X130914097Y-116235627D02*
X130914097Y-116330865D01*
X129485526Y-115854675D02*
X129295050Y-115854675D01*
X129295050Y-115854675D02*
X129199812Y-115902294D01*
X129199812Y-115902294D02*
X129104574Y-115997532D01*
X129104574Y-115997532D02*
X129056955Y-116188008D01*
X129056955Y-116188008D02*
X129056955Y-116521341D01*
X129056955Y-116521341D02*
X129104574Y-116711817D01*
X129104574Y-116711817D02*
X129199812Y-116807056D01*
X129199812Y-116807056D02*
X129295050Y-116854675D01*
X129295050Y-116854675D02*
X129485526Y-116854675D01*
X129485526Y-116854675D02*
X129580764Y-116807056D01*
X129580764Y-116807056D02*
X129676002Y-116711817D01*
X129676002Y-116711817D02*
X129723621Y-116521341D01*
X129723621Y-116521341D02*
X129723621Y-116188008D01*
X129723621Y-116188008D02*
X129676002Y-115997532D01*
X129676002Y-115997532D02*
X129580764Y-115902294D01*
X129580764Y-115902294D02*
X129485526Y-115854675D01*
X128628383Y-116854675D02*
X128628383Y-116188008D01*
X128628383Y-116283246D02*
X128580764Y-116235627D01*
X128580764Y-116235627D02*
X128485526Y-116188008D01*
X128485526Y-116188008D02*
X128342669Y-116188008D01*
X128342669Y-116188008D02*
X128247431Y-116235627D01*
X128247431Y-116235627D02*
X128199812Y-116330865D01*
X128199812Y-116330865D02*
X128199812Y-116854675D01*
X128199812Y-116330865D02*
X128152193Y-116235627D01*
X128152193Y-116235627D02*
X128056955Y-116188008D01*
X128056955Y-116188008D02*
X127914098Y-116188008D01*
X127914098Y-116188008D02*
X127818859Y-116235627D01*
X127818859Y-116235627D02*
X127771240Y-116330865D01*
X127771240Y-116330865D02*
X127771240Y-116854675D01*
X126866479Y-116854675D02*
X126866479Y-116330865D01*
X126866479Y-116330865D02*
X126914098Y-116235627D01*
X126914098Y-116235627D02*
X127009336Y-116188008D01*
X127009336Y-116188008D02*
X127199812Y-116188008D01*
X127199812Y-116188008D02*
X127295050Y-116235627D01*
X126866479Y-116807056D02*
X126961717Y-116854675D01*
X126961717Y-116854675D02*
X127199812Y-116854675D01*
X127199812Y-116854675D02*
X127295050Y-116807056D01*
X127295050Y-116807056D02*
X127342669Y-116711817D01*
X127342669Y-116711817D02*
X127342669Y-116616579D01*
X127342669Y-116616579D02*
X127295050Y-116521341D01*
X127295050Y-116521341D02*
X127199812Y-116473722D01*
X127199812Y-116473722D02*
X126961717Y-116473722D01*
X126961717Y-116473722D02*
X126866479Y-116426103D01*
X126390288Y-116854675D02*
X126390288Y-116188008D01*
X126390288Y-116378484D02*
X126342669Y-116283246D01*
X126342669Y-116283246D02*
X126295050Y-116235627D01*
X126295050Y-116235627D02*
X126199812Y-116188008D01*
X126199812Y-116188008D02*
X126104574Y-116188008D01*
X125056954Y-116568960D02*
X124580764Y-116568960D01*
X125152192Y-116854675D02*
X124818859Y-115854675D01*
X124818859Y-115854675D02*
X124485526Y-116854675D01*
X124295049Y-116188008D02*
X123914097Y-116188008D01*
X124152192Y-115854675D02*
X124152192Y-116711817D01*
X124152192Y-116711817D02*
X124104573Y-116807056D01*
X124104573Y-116807056D02*
X124009335Y-116854675D01*
X124009335Y-116854675D02*
X123914097Y-116854675D01*
X123199811Y-116807056D02*
X123295049Y-116854675D01*
X123295049Y-116854675D02*
X123485525Y-116854675D01*
X123485525Y-116854675D02*
X123580763Y-116807056D01*
X123580763Y-116807056D02*
X123628382Y-116711817D01*
X123628382Y-116711817D02*
X123628382Y-116330865D01*
X123628382Y-116330865D02*
X123580763Y-116235627D01*
X123580763Y-116235627D02*
X123485525Y-116188008D01*
X123485525Y-116188008D02*
X123295049Y-116188008D01*
X123295049Y-116188008D02*
X123199811Y-116235627D01*
X123199811Y-116235627D02*
X123152192Y-116330865D01*
X123152192Y-116330865D02*
X123152192Y-116426103D01*
X123152192Y-116426103D02*
X123628382Y-116521341D01*
X122866477Y-116188008D02*
X122485525Y-116188008D01*
X122723620Y-116854675D02*
X122723620Y-115997532D01*
X122723620Y-115997532D02*
X122676001Y-115902294D01*
X122676001Y-115902294D02*
X122580763Y-115854675D01*
X122580763Y-115854675D02*
X122485525Y-115854675D01*
X137247431Y-118464619D02*
X137247431Y-117464619D01*
X136771241Y-118464619D02*
X136771241Y-117464619D01*
X136771241Y-117464619D02*
X136533146Y-117464619D01*
X136533146Y-117464619D02*
X136390289Y-117512238D01*
X136390289Y-117512238D02*
X136295051Y-117607476D01*
X136295051Y-117607476D02*
X136247432Y-117702714D01*
X136247432Y-117702714D02*
X136199813Y-117893190D01*
X136199813Y-117893190D02*
X136199813Y-118036047D01*
X136199813Y-118036047D02*
X136247432Y-118226523D01*
X136247432Y-118226523D02*
X136295051Y-118321761D01*
X136295051Y-118321761D02*
X136390289Y-118417000D01*
X136390289Y-118417000D02*
X136533146Y-118464619D01*
X136533146Y-118464619D02*
X136771241Y-118464619D01*
X135771241Y-118369380D02*
X135723622Y-118417000D01*
X135723622Y-118417000D02*
X135771241Y-118464619D01*
X135771241Y-118464619D02*
X135818860Y-118417000D01*
X135818860Y-118417000D02*
X135771241Y-118369380D01*
X135771241Y-118369380D02*
X135771241Y-118464619D01*
X135771241Y-117845571D02*
X135723622Y-117893190D01*
X135723622Y-117893190D02*
X135771241Y-117940809D01*
X135771241Y-117940809D02*
X135818860Y-117893190D01*
X135818860Y-117893190D02*
X135771241Y-117845571D01*
X135771241Y-117845571D02*
X135771241Y-117940809D01*
X134009337Y-118464619D02*
X134580765Y-118464619D01*
X134295051Y-118464619D02*
X134295051Y-117464619D01*
X134295051Y-117464619D02*
X134390289Y-117607476D01*
X134390289Y-117607476D02*
X134485527Y-117702714D01*
X134485527Y-117702714D02*
X134580765Y-117750333D01*
X133152194Y-117797952D02*
X133152194Y-118464619D01*
X133390289Y-117417000D02*
X133628384Y-118131285D01*
X133628384Y-118131285D02*
X133009337Y-118131285D01*
X132723622Y-117464619D02*
X132056956Y-117464619D01*
X132056956Y-117464619D02*
X132485527Y-118464619D01*
X131723622Y-117559857D02*
X131676003Y-117512238D01*
X131676003Y-117512238D02*
X131580765Y-117464619D01*
X131580765Y-117464619D02*
X131342670Y-117464619D01*
X131342670Y-117464619D02*
X131247432Y-117512238D01*
X131247432Y-117512238D02*
X131199813Y-117559857D01*
X131199813Y-117559857D02*
X131152194Y-117655095D01*
X131152194Y-117655095D02*
X131152194Y-117750333D01*
X131152194Y-117750333D02*
X131199813Y-117893190D01*
X131199813Y-117893190D02*
X131771241Y-118464619D01*
X131771241Y-118464619D02*
X131152194Y-118464619D01*
X130771241Y-117559857D02*
X130723622Y-117512238D01*
X130723622Y-117512238D02*
X130628384Y-117464619D01*
X130628384Y-117464619D02*
X130390289Y-117464619D01*
X130390289Y-117464619D02*
X130295051Y-117512238D01*
X130295051Y-117512238D02*
X130247432Y-117559857D01*
X130247432Y-117559857D02*
X130199813Y-117655095D01*
X130199813Y-117655095D02*
X130199813Y-117750333D01*
X130199813Y-117750333D02*
X130247432Y-117893190D01*
X130247432Y-117893190D02*
X130818860Y-118464619D01*
X130818860Y-118464619D02*
X130199813Y-118464619D01*
X129580765Y-117464619D02*
X129485527Y-117464619D01*
X129485527Y-117464619D02*
X129390289Y-117512238D01*
X129390289Y-117512238D02*
X129342670Y-117559857D01*
X129342670Y-117559857D02*
X129295051Y-117655095D01*
X129295051Y-117655095D02*
X129247432Y-117845571D01*
X129247432Y-117845571D02*
X129247432Y-118083666D01*
X129247432Y-118083666D02*
X129295051Y-118274142D01*
X129295051Y-118274142D02*
X129342670Y-118369380D01*
X129342670Y-118369380D02*
X129390289Y-118417000D01*
X129390289Y-118417000D02*
X129485527Y-118464619D01*
X129485527Y-118464619D02*
X129580765Y-118464619D01*
X129580765Y-118464619D02*
X129676003Y-118417000D01*
X129676003Y-118417000D02*
X129723622Y-118369380D01*
X129723622Y-118369380D02*
X129771241Y-118274142D01*
X129771241Y-118274142D02*
X129818860Y-118083666D01*
X129818860Y-118083666D02*
X129818860Y-117845571D01*
X129818860Y-117845571D02*
X129771241Y-117655095D01*
X129771241Y-117655095D02*
X129723622Y-117559857D01*
X129723622Y-117559857D02*
X129676003Y-117512238D01*
X129676003Y-117512238D02*
X129580765Y-117464619D01*
X128676003Y-117893190D02*
X128771241Y-117845571D01*
X128771241Y-117845571D02*
X128818860Y-117797952D01*
X128818860Y-117797952D02*
X128866479Y-117702714D01*
X128866479Y-117702714D02*
X128866479Y-117655095D01*
X128866479Y-117655095D02*
X128818860Y-117559857D01*
X128818860Y-117559857D02*
X128771241Y-117512238D01*
X128771241Y-117512238D02*
X128676003Y-117464619D01*
X128676003Y-117464619D02*
X128485527Y-117464619D01*
X128485527Y-117464619D02*
X128390289Y-117512238D01*
X128390289Y-117512238D02*
X128342670Y-117559857D01*
X128342670Y-117559857D02*
X128295051Y-117655095D01*
X128295051Y-117655095D02*
X128295051Y-117702714D01*
X128295051Y-117702714D02*
X128342670Y-117797952D01*
X128342670Y-117797952D02*
X128390289Y-117845571D01*
X128390289Y-117845571D02*
X128485527Y-117893190D01*
X128485527Y-117893190D02*
X128676003Y-117893190D01*
X128676003Y-117893190D02*
X128771241Y-117940809D01*
X128771241Y-117940809D02*
X128818860Y-117988428D01*
X128818860Y-117988428D02*
X128866479Y-118083666D01*
X128866479Y-118083666D02*
X128866479Y-118274142D01*
X128866479Y-118274142D02*
X128818860Y-118369380D01*
X128818860Y-118369380D02*
X128771241Y-118417000D01*
X128771241Y-118417000D02*
X128676003Y-118464619D01*
X128676003Y-118464619D02*
X128485527Y-118464619D01*
X128485527Y-118464619D02*
X128390289Y-118417000D01*
X128390289Y-118417000D02*
X128342670Y-118369380D01*
X128342670Y-118369380D02*
X128295051Y-118274142D01*
X128295051Y-118274142D02*
X128295051Y-118083666D01*
X128295051Y-118083666D02*
X128342670Y-117988428D01*
X128342670Y-117988428D02*
X128390289Y-117940809D01*
X128390289Y-117940809D02*
X128485527Y-117893190D01*
X127914098Y-117559857D02*
X127866479Y-117512238D01*
X127866479Y-117512238D02*
X127771241Y-117464619D01*
X127771241Y-117464619D02*
X127533146Y-117464619D01*
X127533146Y-117464619D02*
X127437908Y-117512238D01*
X127437908Y-117512238D02*
X127390289Y-117559857D01*
X127390289Y-117559857D02*
X127342670Y-117655095D01*
X127342670Y-117655095D02*
X127342670Y-117750333D01*
X127342670Y-117750333D02*
X127390289Y-117893190D01*
X127390289Y-117893190D02*
X127961717Y-118464619D01*
X127961717Y-118464619D02*
X127342670Y-118464619D01*
X126437908Y-117464619D02*
X126914098Y-117464619D01*
X126914098Y-117464619D02*
X126961717Y-117940809D01*
X126961717Y-117940809D02*
X126914098Y-117893190D01*
X126914098Y-117893190D02*
X126818860Y-117845571D01*
X126818860Y-117845571D02*
X126580765Y-117845571D01*
X126580765Y-117845571D02*
X126485527Y-117893190D01*
X126485527Y-117893190D02*
X126437908Y-117940809D01*
X126437908Y-117940809D02*
X126390289Y-118036047D01*
X126390289Y-118036047D02*
X126390289Y-118274142D01*
X126390289Y-118274142D02*
X126437908Y-118369380D01*
X126437908Y-118369380D02*
X126485527Y-118417000D01*
X126485527Y-118417000D02*
X126580765Y-118464619D01*
X126580765Y-118464619D02*
X126818860Y-118464619D01*
X126818860Y-118464619D02*
X126914098Y-118417000D01*
X126914098Y-118417000D02*
X126961717Y-118369380D01*
X125437908Y-118464619D02*
X126009336Y-118464619D01*
X125723622Y-118464619D02*
X125723622Y-117464619D01*
X125723622Y-117464619D02*
X125818860Y-117607476D01*
X125818860Y-117607476D02*
X125914098Y-117702714D01*
X125914098Y-117702714D02*
X126009336Y-117750333D01*
X124485527Y-118464619D02*
X125056955Y-118464619D01*
X124771241Y-118464619D02*
X124771241Y-117464619D01*
X124771241Y-117464619D02*
X124866479Y-117607476D01*
X124866479Y-117607476D02*
X124961717Y-117702714D01*
X124961717Y-117702714D02*
X125056955Y-117750333D01*
X123866479Y-117464619D02*
X123771241Y-117464619D01*
X123771241Y-117464619D02*
X123676003Y-117512238D01*
X123676003Y-117512238D02*
X123628384Y-117559857D01*
X123628384Y-117559857D02*
X123580765Y-117655095D01*
X123580765Y-117655095D02*
X123533146Y-117845571D01*
X123533146Y-117845571D02*
X123533146Y-118083666D01*
X123533146Y-118083666D02*
X123580765Y-118274142D01*
X123580765Y-118274142D02*
X123628384Y-118369380D01*
X123628384Y-118369380D02*
X123676003Y-118417000D01*
X123676003Y-118417000D02*
X123771241Y-118464619D01*
X123771241Y-118464619D02*
X123866479Y-118464619D01*
X123866479Y-118464619D02*
X123961717Y-118417000D01*
X123961717Y-118417000D02*
X124009336Y-118369380D01*
X124009336Y-118369380D02*
X124056955Y-118274142D01*
X124056955Y-118274142D02*
X124104574Y-118083666D01*
X124104574Y-118083666D02*
X124104574Y-117845571D01*
X124104574Y-117845571D02*
X124056955Y-117655095D01*
X124056955Y-117655095D02*
X124009336Y-117559857D01*
X124009336Y-117559857D02*
X123961717Y-117512238D01*
X123961717Y-117512238D02*
X123866479Y-117464619D01*
X122676003Y-117797952D02*
X122676003Y-118464619D01*
X122914098Y-117417000D02*
X123152193Y-118131285D01*
X123152193Y-118131285D02*
X122533146Y-118131285D01*
D11*
%TO.C,REF\u002A\u002A*%
X135423925Y-109654169D02*
X135412507Y-109677670D01*
X135391507Y-109715214D01*
X135378624Y-109737436D01*
X135351228Y-109784827D01*
X135310913Y-109854623D01*
X135258991Y-109944556D01*
X135196769Y-110052358D01*
X135125557Y-110175760D01*
X135046665Y-110312494D01*
X134961402Y-110460291D01*
X134871076Y-110616883D01*
X134776998Y-110780000D01*
X134684879Y-110939677D01*
X134595320Y-111094813D01*
X134511107Y-111240588D01*
X134433503Y-111374817D01*
X134363775Y-111495315D01*
X134303186Y-111599898D01*
X134253002Y-111686381D01*
X134214488Y-111752579D01*
X134188908Y-111796307D01*
X134177528Y-111815381D01*
X134154180Y-111851799D01*
X134107164Y-111807637D01*
X134092977Y-111793968D01*
X134051608Y-111752281D01*
X133996893Y-111695528D01*
X133931490Y-111626603D01*
X133858057Y-111548401D01*
X133779254Y-111463818D01*
X133697740Y-111375747D01*
X133616173Y-111287084D01*
X133537212Y-111200724D01*
X133463517Y-111119561D01*
X133397746Y-111046490D01*
X133342559Y-110984406D01*
X133300614Y-110936205D01*
X133274569Y-110904780D01*
X133267085Y-110893026D01*
X133269654Y-110891728D01*
X133294215Y-110878022D01*
X133342796Y-110850387D01*
X133413348Y-110810002D01*
X133503827Y-110758045D01*
X133612185Y-110695695D01*
X133736376Y-110624129D01*
X133874355Y-110544525D01*
X134024074Y-110458062D01*
X134183487Y-110365917D01*
X134350549Y-110269268D01*
X134412992Y-110233133D01*
X134577117Y-110138194D01*
X134732642Y-110048286D01*
X134877546Y-109964576D01*
X135009805Y-109888229D01*
X135127396Y-109820411D01*
X135228298Y-109762289D01*
X135310487Y-109715029D01*
X135371941Y-109679797D01*
X135410636Y-109657758D01*
X135424551Y-109650080D01*
X135423925Y-109654169D01*
G36*
X135423925Y-109654169D02*
G01*
X135412507Y-109677670D01*
X135391507Y-109715214D01*
X135378624Y-109737436D01*
X135351228Y-109784827D01*
X135310913Y-109854623D01*
X135258991Y-109944556D01*
X135196769Y-110052358D01*
X135125557Y-110175760D01*
X135046665Y-110312494D01*
X134961402Y-110460291D01*
X134871076Y-110616883D01*
X134776998Y-110780000D01*
X134684879Y-110939677D01*
X134595320Y-111094813D01*
X134511107Y-111240588D01*
X134433503Y-111374817D01*
X134363775Y-111495315D01*
X134303186Y-111599898D01*
X134253002Y-111686381D01*
X134214488Y-111752579D01*
X134188908Y-111796307D01*
X134177528Y-111815381D01*
X134154180Y-111851799D01*
X134107164Y-111807637D01*
X134092977Y-111793968D01*
X134051608Y-111752281D01*
X133996893Y-111695528D01*
X133931490Y-111626603D01*
X133858057Y-111548401D01*
X133779254Y-111463818D01*
X133697740Y-111375747D01*
X133616173Y-111287084D01*
X133537212Y-111200724D01*
X133463517Y-111119561D01*
X133397746Y-111046490D01*
X133342559Y-110984406D01*
X133300614Y-110936205D01*
X133274569Y-110904780D01*
X133267085Y-110893026D01*
X133269654Y-110891728D01*
X133294215Y-110878022D01*
X133342796Y-110850387D01*
X133413348Y-110810002D01*
X133503827Y-110758045D01*
X133612185Y-110695695D01*
X133736376Y-110624129D01*
X133874355Y-110544525D01*
X134024074Y-110458062D01*
X134183487Y-110365917D01*
X134350549Y-110269268D01*
X134412992Y-110233133D01*
X134577117Y-110138194D01*
X134732642Y-110048286D01*
X134877546Y-109964576D01*
X135009805Y-109888229D01*
X135127396Y-109820411D01*
X135228298Y-109762289D01*
X135310487Y-109715029D01*
X135371941Y-109679797D01*
X135410636Y-109657758D01*
X135424551Y-109650080D01*
X135423925Y-109654169D01*
G37*
X131209680Y-112100194D02*
X131214268Y-112110703D01*
X131214618Y-112112417D01*
X131227732Y-112133318D01*
X131256000Y-112168861D01*
X131294214Y-112212417D01*
X131311845Y-112231125D01*
X131366518Y-112281488D01*
X131426978Y-112324535D01*
X131496818Y-112361527D01*
X131579630Y-112393727D01*
X131679008Y-112422398D01*
X131798545Y-112448802D01*
X131941834Y-112474200D01*
X132112469Y-112499855D01*
X132308866Y-112528773D01*
X132498726Y-112559827D01*
X132664740Y-112590956D01*
X132810618Y-112623058D01*
X132940073Y-112657031D01*
X133056817Y-112693774D01*
X133164560Y-112734183D01*
X133267015Y-112779157D01*
X133342312Y-112816246D01*
X133414235Y-112855275D01*
X133471114Y-112890118D01*
X133508501Y-112918035D01*
X133521951Y-112936286D01*
X133521554Y-112937630D01*
X133510720Y-112959138D01*
X133486155Y-113004178D01*
X133449315Y-113070228D01*
X133401653Y-113154767D01*
X133344624Y-113255273D01*
X133279682Y-113369224D01*
X133208281Y-113494099D01*
X133131876Y-113627376D01*
X133051921Y-113766533D01*
X132969870Y-113909049D01*
X132887178Y-114052402D01*
X132805299Y-114194070D01*
X132725687Y-114331532D01*
X132649796Y-114462266D01*
X132579081Y-114583750D01*
X132514996Y-114693462D01*
X132458996Y-114788882D01*
X132412534Y-114867486D01*
X132377065Y-114926755D01*
X132354043Y-114964165D01*
X132344923Y-114977195D01*
X132344440Y-114976825D01*
X132332907Y-114959489D01*
X132307500Y-114917838D01*
X132269493Y-114854089D01*
X132220163Y-114770455D01*
X132160787Y-114669151D01*
X132092641Y-114552391D01*
X132017000Y-114422392D01*
X131935141Y-114281367D01*
X131848340Y-114131532D01*
X131757874Y-113975100D01*
X131665018Y-113814287D01*
X131571049Y-113651307D01*
X131477243Y-113488376D01*
X131384876Y-113327708D01*
X131295224Y-113171518D01*
X131209564Y-113022020D01*
X131129172Y-112881429D01*
X131055323Y-112751960D01*
X130989295Y-112635828D01*
X130932363Y-112535248D01*
X130885803Y-112452433D01*
X130850892Y-112389600D01*
X130828906Y-112348963D01*
X130821121Y-112332736D01*
X130821113Y-112332612D01*
X130833667Y-112315584D01*
X130869742Y-112286721D01*
X130925583Y-112248753D01*
X130997439Y-112204413D01*
X131045627Y-112176048D01*
X131114968Y-112136604D01*
X131163266Y-112111746D01*
X131193758Y-112100076D01*
X131209680Y-112100194D01*
G36*
X131209680Y-112100194D02*
G01*
X131214268Y-112110703D01*
X131214618Y-112112417D01*
X131227732Y-112133318D01*
X131256000Y-112168861D01*
X131294214Y-112212417D01*
X131311845Y-112231125D01*
X131366518Y-112281488D01*
X131426978Y-112324535D01*
X131496818Y-112361527D01*
X131579630Y-112393727D01*
X131679008Y-112422398D01*
X131798545Y-112448802D01*
X131941834Y-112474200D01*
X132112469Y-112499855D01*
X132308866Y-112528773D01*
X132498726Y-112559827D01*
X132664740Y-112590956D01*
X132810618Y-112623058D01*
X132940073Y-112657031D01*
X133056817Y-112693774D01*
X133164560Y-112734183D01*
X133267015Y-112779157D01*
X133342312Y-112816246D01*
X133414235Y-112855275D01*
X133471114Y-112890118D01*
X133508501Y-112918035D01*
X133521951Y-112936286D01*
X133521554Y-112937630D01*
X133510720Y-112959138D01*
X133486155Y-113004178D01*
X133449315Y-113070228D01*
X133401653Y-113154767D01*
X133344624Y-113255273D01*
X133279682Y-113369224D01*
X133208281Y-113494099D01*
X133131876Y-113627376D01*
X133051921Y-113766533D01*
X132969870Y-113909049D01*
X132887178Y-114052402D01*
X132805299Y-114194070D01*
X132725687Y-114331532D01*
X132649796Y-114462266D01*
X132579081Y-114583750D01*
X132514996Y-114693462D01*
X132458996Y-114788882D01*
X132412534Y-114867486D01*
X132377065Y-114926755D01*
X132354043Y-114964165D01*
X132344923Y-114977195D01*
X132344440Y-114976825D01*
X132332907Y-114959489D01*
X132307500Y-114917838D01*
X132269493Y-114854089D01*
X132220163Y-114770455D01*
X132160787Y-114669151D01*
X132092641Y-114552391D01*
X132017000Y-114422392D01*
X131935141Y-114281367D01*
X131848340Y-114131532D01*
X131757874Y-113975100D01*
X131665018Y-113814287D01*
X131571049Y-113651307D01*
X131477243Y-113488376D01*
X131384876Y-113327708D01*
X131295224Y-113171518D01*
X131209564Y-113022020D01*
X131129172Y-112881429D01*
X131055323Y-112751960D01*
X130989295Y-112635828D01*
X130932363Y-112535248D01*
X130885803Y-112452433D01*
X130850892Y-112389600D01*
X130828906Y-112348963D01*
X130821121Y-112332736D01*
X130821113Y-112332612D01*
X130833667Y-112315584D01*
X130869742Y-112286721D01*
X130925583Y-112248753D01*
X130997439Y-112204413D01*
X131045627Y-112176048D01*
X131114968Y-112136604D01*
X131163266Y-112111746D01*
X131193758Y-112100076D01*
X131209680Y-112100194D01*
G37*
X132167079Y-109091841D02*
X132472500Y-109091958D01*
X132768568Y-109092198D01*
X133053841Y-109092556D01*
X133326877Y-109093024D01*
X133586235Y-109093597D01*
X133830473Y-109094268D01*
X134058151Y-109095032D01*
X134267826Y-109095881D01*
X134458057Y-109096811D01*
X134627403Y-109097814D01*
X134774422Y-109098885D01*
X134897673Y-109100017D01*
X134995714Y-109101204D01*
X135067104Y-109102441D01*
X135110402Y-109103720D01*
X135124165Y-109105037D01*
X135113946Y-109111696D01*
X135078689Y-109132917D01*
X135020779Y-109167080D01*
X134942570Y-109212829D01*
X134846417Y-109268810D01*
X134734677Y-109333667D01*
X134609704Y-109406046D01*
X134473854Y-109484591D01*
X134329482Y-109567946D01*
X134178944Y-109654757D01*
X134024595Y-109743668D01*
X133868790Y-109833324D01*
X133713884Y-109922371D01*
X133562234Y-110009452D01*
X133416194Y-110093212D01*
X133278119Y-110172297D01*
X133150366Y-110245351D01*
X133035289Y-110311019D01*
X132935244Y-110367946D01*
X132852586Y-110414776D01*
X132789671Y-110450154D01*
X132748853Y-110472726D01*
X132732489Y-110481136D01*
X132721811Y-110479051D01*
X132689642Y-110460092D01*
X132643779Y-110424968D01*
X132589260Y-110377331D01*
X132540155Y-110329644D01*
X132477611Y-110264684D01*
X132407632Y-110188845D01*
X132333804Y-110106302D01*
X132259715Y-110021232D01*
X132188952Y-109937810D01*
X132125102Y-109860211D01*
X132071753Y-109792611D01*
X132032491Y-109739186D01*
X132010905Y-109704111D01*
X131996494Y-109678495D01*
X131957357Y-109625484D01*
X131907042Y-109569088D01*
X131852724Y-109516538D01*
X131801576Y-109475070D01*
X131760773Y-109451914D01*
X131715708Y-109446562D01*
X131655574Y-109461355D01*
X131598421Y-109495274D01*
X131554067Y-109543947D01*
X131546387Y-109556575D01*
X131536608Y-109577257D01*
X131530235Y-109602146D01*
X131526858Y-109636591D01*
X131526069Y-109685938D01*
X131527459Y-109755536D01*
X131530619Y-109850732D01*
X131532884Y-109905798D01*
X131537696Y-109992883D01*
X131543375Y-110069101D01*
X131549392Y-110127751D01*
X131555217Y-110162134D01*
X131569321Y-110201412D01*
X131611134Y-110278760D01*
X131676105Y-110370409D01*
X131765030Y-110477433D01*
X131878700Y-110600910D01*
X131928028Y-110652934D01*
X131985062Y-110714304D01*
X132032136Y-110766335D01*
X132065376Y-110804734D01*
X132080911Y-110825204D01*
X132082508Y-110828454D01*
X132084423Y-110842447D01*
X132074855Y-110857961D01*
X132049885Y-110878341D01*
X132005594Y-110906929D01*
X131938062Y-110947068D01*
X131880653Y-110980578D01*
X131775008Y-111041877D01*
X131691829Y-111089491D01*
X131628322Y-111124967D01*
X131581694Y-111149851D01*
X131549150Y-111165687D01*
X131527896Y-111174023D01*
X131505903Y-111183272D01*
X131493049Y-111195693D01*
X131491846Y-111198622D01*
X131473039Y-111214916D01*
X131438665Y-111235902D01*
X131384281Y-111265190D01*
X131344126Y-111227808D01*
X131329943Y-111212664D01*
X131296945Y-111171507D01*
X131256654Y-111116555D01*
X131214818Y-111055469D01*
X131125664Y-110920511D01*
X131129163Y-110570638D01*
X131132661Y-110220765D01*
X131183607Y-110171267D01*
X131200726Y-110153621D01*
X131255624Y-110074340D01*
X131287670Y-109980065D01*
X131298588Y-109866220D01*
X131295877Y-109805221D01*
X131276739Y-109697622D01*
X131241859Y-109599417D01*
X131194258Y-109520618D01*
X131161205Y-109491886D01*
X131102451Y-109470063D01*
X131035939Y-109467546D01*
X130970184Y-109483172D01*
X130913699Y-109515780D01*
X130874997Y-109564207D01*
X130873730Y-109566832D01*
X130850337Y-109614775D01*
X130825561Y-109664878D01*
X130804528Y-109711913D01*
X130774356Y-109791190D01*
X130741068Y-109888928D01*
X130705821Y-110000772D01*
X130669771Y-110122366D01*
X130634075Y-110249355D01*
X130599890Y-110377384D01*
X130568373Y-110502098D01*
X130540680Y-110619141D01*
X130517968Y-110724157D01*
X130501394Y-110812791D01*
X130492115Y-110880688D01*
X130491286Y-110923493D01*
X130493153Y-110933218D01*
X130511342Y-110982444D01*
X130545093Y-111048301D01*
X130591445Y-111124835D01*
X130609236Y-111152415D01*
X130680718Y-111264878D01*
X130741480Y-111363228D01*
X130790183Y-111445168D01*
X130825486Y-111508395D01*
X130846048Y-111550610D01*
X130850531Y-111569513D01*
X130850012Y-111570180D01*
X130831455Y-111583795D01*
X130791798Y-111608681D01*
X130736474Y-111641524D01*
X130670916Y-111679012D01*
X130665374Y-111682124D01*
X130594193Y-111721288D01*
X130544619Y-111746264D01*
X130512094Y-111758842D01*
X130492058Y-111760811D01*
X130479953Y-111753960D01*
X130474198Y-111745375D01*
X130453635Y-111711654D01*
X130419821Y-111654800D01*
X130374050Y-111577032D01*
X130317617Y-111480568D01*
X130251816Y-111367629D01*
X130177942Y-111240432D01*
X130097289Y-111101197D01*
X130011152Y-110952143D01*
X129920825Y-110795488D01*
X129896053Y-110752479D01*
X129798100Y-110582425D01*
X129699491Y-110411246D01*
X129602240Y-110242438D01*
X129508362Y-110079497D01*
X129419869Y-109925918D01*
X129338778Y-109785199D01*
X129267102Y-109660834D01*
X129206856Y-109556320D01*
X129160053Y-109475153D01*
X128938970Y-109091829D01*
X132038924Y-109091829D01*
X132167079Y-109091841D01*
G36*
X132167079Y-109091841D02*
G01*
X132472500Y-109091958D01*
X132768568Y-109092198D01*
X133053841Y-109092556D01*
X133326877Y-109093024D01*
X133586235Y-109093597D01*
X133830473Y-109094268D01*
X134058151Y-109095032D01*
X134267826Y-109095881D01*
X134458057Y-109096811D01*
X134627403Y-109097814D01*
X134774422Y-109098885D01*
X134897673Y-109100017D01*
X134995714Y-109101204D01*
X135067104Y-109102441D01*
X135110402Y-109103720D01*
X135124165Y-109105037D01*
X135113946Y-109111696D01*
X135078689Y-109132917D01*
X135020779Y-109167080D01*
X134942570Y-109212829D01*
X134846417Y-109268810D01*
X134734677Y-109333667D01*
X134609704Y-109406046D01*
X134473854Y-109484591D01*
X134329482Y-109567946D01*
X134178944Y-109654757D01*
X134024595Y-109743668D01*
X133868790Y-109833324D01*
X133713884Y-109922371D01*
X133562234Y-110009452D01*
X133416194Y-110093212D01*
X133278119Y-110172297D01*
X133150366Y-110245351D01*
X133035289Y-110311019D01*
X132935244Y-110367946D01*
X132852586Y-110414776D01*
X132789671Y-110450154D01*
X132748853Y-110472726D01*
X132732489Y-110481136D01*
X132721811Y-110479051D01*
X132689642Y-110460092D01*
X132643779Y-110424968D01*
X132589260Y-110377331D01*
X132540155Y-110329644D01*
X132477611Y-110264684D01*
X132407632Y-110188845D01*
X132333804Y-110106302D01*
X132259715Y-110021232D01*
X132188952Y-109937810D01*
X132125102Y-109860211D01*
X132071753Y-109792611D01*
X132032491Y-109739186D01*
X132010905Y-109704111D01*
X131996494Y-109678495D01*
X131957357Y-109625484D01*
X131907042Y-109569088D01*
X131852724Y-109516538D01*
X131801576Y-109475070D01*
X131760773Y-109451914D01*
X131715708Y-109446562D01*
X131655574Y-109461355D01*
X131598421Y-109495274D01*
X131554067Y-109543947D01*
X131546387Y-109556575D01*
X131536608Y-109577257D01*
X131530235Y-109602146D01*
X131526858Y-109636591D01*
X131526069Y-109685938D01*
X131527459Y-109755536D01*
X131530619Y-109850732D01*
X131532884Y-109905798D01*
X131537696Y-109992883D01*
X131543375Y-110069101D01*
X131549392Y-110127751D01*
X131555217Y-110162134D01*
X131569321Y-110201412D01*
X131611134Y-110278760D01*
X131676105Y-110370409D01*
X131765030Y-110477433D01*
X131878700Y-110600910D01*
X131928028Y-110652934D01*
X131985062Y-110714304D01*
X132032136Y-110766335D01*
X132065376Y-110804734D01*
X132080911Y-110825204D01*
X132082508Y-110828454D01*
X132084423Y-110842447D01*
X132074855Y-110857961D01*
X132049885Y-110878341D01*
X132005594Y-110906929D01*
X131938062Y-110947068D01*
X131880653Y-110980578D01*
X131775008Y-111041877D01*
X131691829Y-111089491D01*
X131628322Y-111124967D01*
X131581694Y-111149851D01*
X131549150Y-111165687D01*
X131527896Y-111174023D01*
X131505903Y-111183272D01*
X131493049Y-111195693D01*
X131491846Y-111198622D01*
X131473039Y-111214916D01*
X131438665Y-111235902D01*
X131384281Y-111265190D01*
X131344126Y-111227808D01*
X131329943Y-111212664D01*
X131296945Y-111171507D01*
X131256654Y-111116555D01*
X131214818Y-111055469D01*
X131125664Y-110920511D01*
X131129163Y-110570638D01*
X131132661Y-110220765D01*
X131183607Y-110171267D01*
X131200726Y-110153621D01*
X131255624Y-110074340D01*
X131287670Y-109980065D01*
X131298588Y-109866220D01*
X131295877Y-109805221D01*
X131276739Y-109697622D01*
X131241859Y-109599417D01*
X131194258Y-109520618D01*
X131161205Y-109491886D01*
X131102451Y-109470063D01*
X131035939Y-109467546D01*
X130970184Y-109483172D01*
X130913699Y-109515780D01*
X130874997Y-109564207D01*
X130873730Y-109566832D01*
X130850337Y-109614775D01*
X130825561Y-109664878D01*
X130804528Y-109711913D01*
X130774356Y-109791190D01*
X130741068Y-109888928D01*
X130705821Y-110000772D01*
X130669771Y-110122366D01*
X130634075Y-110249355D01*
X130599890Y-110377384D01*
X130568373Y-110502098D01*
X130540680Y-110619141D01*
X130517968Y-110724157D01*
X130501394Y-110812791D01*
X130492115Y-110880688D01*
X130491286Y-110923493D01*
X130493153Y-110933218D01*
X130511342Y-110982444D01*
X130545093Y-111048301D01*
X130591445Y-111124835D01*
X130609236Y-111152415D01*
X130680718Y-111264878D01*
X130741480Y-111363228D01*
X130790183Y-111445168D01*
X130825486Y-111508395D01*
X130846048Y-111550610D01*
X130850531Y-111569513D01*
X130850012Y-111570180D01*
X130831455Y-111583795D01*
X130791798Y-111608681D01*
X130736474Y-111641524D01*
X130670916Y-111679012D01*
X130665374Y-111682124D01*
X130594193Y-111721288D01*
X130544619Y-111746264D01*
X130512094Y-111758842D01*
X130492058Y-111760811D01*
X130479953Y-111753960D01*
X130474198Y-111745375D01*
X130453635Y-111711654D01*
X130419821Y-111654800D01*
X130374050Y-111577032D01*
X130317617Y-111480568D01*
X130251816Y-111367629D01*
X130177942Y-111240432D01*
X130097289Y-111101197D01*
X130011152Y-110952143D01*
X129920825Y-110795488D01*
X129896053Y-110752479D01*
X129798100Y-110582425D01*
X129699491Y-110411246D01*
X129602240Y-110242438D01*
X129508362Y-110079497D01*
X129419869Y-109925918D01*
X129338778Y-109785199D01*
X129267102Y-109660834D01*
X129206856Y-109556320D01*
X129160053Y-109475153D01*
X128938970Y-109091829D01*
X132038924Y-109091829D01*
X132167079Y-109091841D01*
G37*
%TD*%
M02*
