M48
; DRILL file {KiCad 9.0.3} date 2025-11-05T23:16:51+0200
; FORMAT={-:-/ absolute / metric / decimal}
; #@! TF.CreationDate,2025-11-05T23:16:51+02:00
; #@! TF.GenerationSoftware,Kicad,Pcbnew,9.0.3
; #@! TF.FileFunction,Plated,1,2,PTH
FMAT,2
METRIC
; #@! TA.AperFunction,Plated,PTH,ViaDrill
T1C0.300
; #@! TA.AperFunction,Plated,PTH,ComponentDrill
T2C0.800
%
G90
G05
T1
X104.338Y-107.635
X104.941Y-103.456
X106.416Y-106.903
X107.793Y-98.942
X109.894Y-110.684
X109.904Y-104.485
X110.082Y-102.373
X112.188Y-101.869
X112.369Y-113.616
X113.307Y-106.978
X113.637Y-109.155
X114.861Y-100.279
X115.783Y-109.378
X116.903Y-104.044
X117.29Y-98.091
X117.492Y-109.348
X118.428Y-101.0
X118.501Y-109.378
X119.133Y-103.396
X121.007Y-106.39
X121.487Y-94.482
X121.512Y-105.063
X121.587Y-101.758
X122.751Y-107.505
X124.57Y-113.297
X125.243Y-92.056
X128.95Y-115.751
X130.027Y-110.575
X130.148Y-99.296
X130.541Y-101.695
X130.824Y-100.038
X130.871Y-111.41
X134.798Y-97.728
X134.919Y-101.376
X136.068Y-100.715
T2
X106.887Y-120.678
X108.887Y-120.678
X110.887Y-120.678
X112.887Y-120.678
X114.887Y-120.678
X116.887Y-120.678
X118.887Y-120.678
X120.887Y-120.678
X122.887Y-120.678
X128.887Y-120.578
X130.887Y-120.578
X132.887Y-120.578
X134.887Y-120.578
X137.287Y-98.678
X137.287Y-100.678
X137.287Y-102.678
X138.687Y-109.028
X138.687Y-111.028
X138.687Y-113.028
X138.687Y-115.028
X139.287Y-98.678
X139.287Y-100.678
X139.287Y-102.678
M30
